<?xml version="1.0" encoding="UTF-8" standalone="no"?>
<!DOCTYPE svg PUBLIC "-//W3C//DTD SVG 1.1//EN"
 "http://www.w3.org/Graphics/SVG/1.1/DTD/svg11.dtd">
<!-- Generated by graphviz version 2.40.1 (20161225.0304)
 -->
<!-- Title: CFG Pages: 1 -->
<svg width="356pt" height="548pt"
 viewBox="0.00 0.00 356.09 548.00" xmlns="http://www.w3.org/2000/svg" xmlns:xlink="http://www.w3.org/1999/xlink">
<g id="graph0" class="graph" transform="scale(1 1) rotate(0) translate(4 544)">
<title>CFG</title>
<polygon fill="#ffffff" stroke="transparent" points="-4,4 -4,-544 352.087,-544 352.087,4 -4,4"/>
<!-- 0 -->
<g id="node1" class="node">
<title>0</title>
<polygon fill="none" stroke="#000000" points="154.2507,-540 89.8321,-540 89.8321,-504 154.2507,-504 154.2507,-540"/>
<text text-anchor="middle" x="122.0414" y="-517.8" font-family="Times,serif" font-size="14.00" fill="#000000">Program</text>
</g>
<!-- 1 -->
<g id="node2" class="node">
<title>1</title>
<polygon fill="none" stroke="#000000" points="158.0218,-468 86.061,-468 86.061,-432 158.0218,-432 158.0218,-468"/>
<text text-anchor="middle" x="122.0414" y="-445.8" font-family="Times,serif" font-size="14.00" fill="#000000">undefined</text>
</g>
<!-- 0&#45;&gt;1 -->
<g id="edge1" class="edge">
<title>0&#45;&gt;1</title>
<path fill="none" stroke="#000000" d="M122.0414,-503.8314C122.0414,-496.131 122.0414,-486.9743 122.0414,-478.4166"/>
<polygon fill="#000000" stroke="#000000" points="125.5415,-478.4132 122.0414,-468.4133 118.5415,-478.4133 125.5415,-478.4132"/>
</g>
<!-- 2 -->
<g id="node3" class="node">
<title>2</title>
<polygon fill="none" stroke="#000000" points="187.6172,-396 56.4656,-396 56.4656,-360 187.6172,-360 187.6172,-396"/>
<text text-anchor="middle" x="122.0414" y="-373.8" font-family="Times,serif" font-size="14.00" fill="#000000">FunctionDeclaration</text>
</g>
<!-- 1&#45;&gt;2 -->
<g id="edge2" class="edge">
<title>1&#45;&gt;2</title>
<path fill="none" stroke="#000000" d="M122.0414,-431.8314C122.0414,-424.131 122.0414,-414.9743 122.0414,-406.4166"/>
<polygon fill="#000000" stroke="#000000" points="125.5415,-406.4132 122.0414,-396.4133 118.5415,-406.4133 125.5415,-406.4132"/>
</g>
<!-- 3 -->
<g id="node4" class="node">
<title>3</title>
<polygon fill="none" stroke="#000000" points="68.1243,-324 -.0415,-324 -.0415,-288 68.1243,-288 68.1243,-324"/>
<text text-anchor="middle" x="34.0414" y="-301.8" font-family="Times,serif" font-size="14.00" fill="#000000">Identifier</text>
</g>
<!-- 2&#45;&gt;3 -->
<g id="edge3" class="edge">
<title>2&#45;&gt;3</title>
<path fill="none" stroke="#000000" d="M99.8353,-359.8314C88.9964,-350.9632 75.797,-340.1637 64.0736,-330.5718"/>
<polygon fill="#000000" stroke="#000000" points="66.1964,-327.7864 56.2404,-324.1628 61.7637,-333.2041 66.1964,-327.7864"/>
</g>
<!-- 4 -->
<g id="node5" class="node">
<title>4</title>
<polygon fill="none" stroke="#000000" points="158.0218,-324 86.061,-324 86.061,-288 158.0218,-288 158.0218,-324"/>
<text text-anchor="middle" x="122.0414" y="-301.8" font-family="Times,serif" font-size="14.00" fill="#000000">undefined</text>
</g>
<!-- 2&#45;&gt;4 -->
<g id="edge4" class="edge">
<title>2&#45;&gt;4</title>
<path fill="none" stroke="#000000" d="M122.0414,-359.8314C122.0414,-352.131 122.0414,-342.9743 122.0414,-334.4166"/>
<polygon fill="#000000" stroke="#000000" points="125.5415,-334.4132 122.0414,-324.4133 118.5415,-334.4133 125.5415,-334.4132"/>
</g>
<!-- 7 -->
<g id="node8" class="node">
<title>7</title>
<polygon fill="none" stroke="#000000" points="281.9729,-324 176.1099,-324 176.1099,-288 281.9729,-288 281.9729,-324"/>
<text text-anchor="middle" x="229.0414" y="-301.8" font-family="Times,serif" font-size="14.00" fill="#000000">BlockStatement</text>
</g>
<!-- 2&#45;&gt;7 -->
<g id="edge7" class="edge">
<title>2&#45;&gt;7</title>
<path fill="none" stroke="#000000" d="M149.042,-359.8314C162.4745,-350.7927 178.8887,-339.7476 193.3453,-330.0198"/>
<polygon fill="#000000" stroke="#000000" points="195.7068,-332.6494 202.0494,-324.1628 191.7989,-326.8418 195.7068,-332.6494"/>
</g>
<!-- 5 -->
<g id="node6" class="node">
<title>5</title>
<polygon fill="none" stroke="#000000" points="77.1243,-252 8.9585,-252 8.9585,-216 77.1243,-216 77.1243,-252"/>
<text text-anchor="middle" x="43.0414" y="-229.8" font-family="Times,serif" font-size="14.00" fill="#000000">Identifier</text>
</g>
<!-- 4&#45;&gt;5 -->
<g id="edge5" class="edge">
<title>4&#45;&gt;5</title>
<path fill="none" stroke="#000000" d="M102.1064,-287.8314C92.5631,-279.1337 80.9815,-268.5783 70.6108,-259.1265"/>
<polygon fill="#000000" stroke="#000000" points="72.7186,-256.3121 62.9701,-252.1628 68.0034,-261.4857 72.7186,-256.3121"/>
</g>
<!-- 6 -->
<g id="node7" class="node">
<title>6</title>
<polygon fill="none" stroke="#000000" points="163.1243,-252 94.9585,-252 94.9585,-216 163.1243,-216 163.1243,-252"/>
<text text-anchor="middle" x="129.0414" y="-229.8" font-family="Times,serif" font-size="14.00" fill="#000000">Identifier</text>
</g>
<!-- 4&#45;&gt;6 -->
<g id="edge6" class="edge">
<title>4&#45;&gt;6</title>
<path fill="none" stroke="#000000" d="M123.8078,-287.8314C124.5564,-280.131 125.4467,-270.9743 126.2787,-262.4166"/>
<polygon fill="#000000" stroke="#000000" points="129.767,-262.7051 127.2512,-252.4133 122.7999,-262.0276 129.767,-262.7051"/>
</g>
<!-- 8 -->
<g id="node9" class="node">
<title>8</title>
<polygon fill="none" stroke="#000000" points="269.852,-252 188.2308,-252 188.2308,-216 269.852,-216 269.852,-252"/>
<text text-anchor="middle" x="229.0414" y="-229.8" font-family="Times,serif" font-size="14.00" fill="#000000">IfStatement</text>
</g>
<!-- 7&#45;&gt;8 -->
<g id="edge8" class="edge">
<title>7&#45;&gt;8</title>
<path fill="none" stroke="#000000" d="M229.0414,-287.8314C229.0414,-280.131 229.0414,-270.9743 229.0414,-262.4166"/>
<polygon fill="#000000" stroke="#000000" points="232.5415,-262.4132 229.0414,-252.4133 225.5415,-262.4133 232.5415,-262.4132"/>
</g>
<!-- 9 -->
<g id="node10" class="node">
<title>9</title>
<polygon fill="none" stroke="#000000" points="219.9729,-180 114.1099,-180 114.1099,-144 219.9729,-144 219.9729,-180"/>
<text text-anchor="middle" x="167.0414" y="-157.8" font-family="Times,serif" font-size="14.00" fill="#000000">BlockStatement</text>
</g>
<!-- 8&#45;&gt;9 -->
<g id="edge9" class="edge">
<title>8&#45;&gt;9</title>
<path fill="none" stroke="#000000" d="M213.3962,-215.8314C206.1823,-207.454 197.4844,-197.3531 189.5809,-188.1749"/>
<polygon fill="#000000" stroke="#000000" points="192.0747,-185.7071 182.8973,-180.4133 186.7703,-190.2748 192.0747,-185.7071"/>
</g>
<!-- 12 -->
<g id="node13" class="node">
<title>12</title>
<polygon fill="none" stroke="#000000" points="343.9729,-180 238.1099,-180 238.1099,-144 343.9729,-144 343.9729,-180"/>
<text text-anchor="middle" x="291.0414" y="-157.8" font-family="Times,serif" font-size="14.00" fill="#000000">BlockStatement</text>
</g>
<!-- 8&#45;&gt;12 -->
<g id="edge12" class="edge">
<title>8&#45;&gt;12</title>
<path fill="none" stroke="#000000" d="M244.6866,-215.8314C251.9005,-207.454 260.5984,-197.3531 268.5019,-188.1749"/>
<polygon fill="#000000" stroke="#000000" points="271.3125,-190.2748 275.1855,-180.4133 266.0081,-185.7071 271.3125,-190.2748"/>
</g>
<!-- 10 -->
<g id="node11" class="node">
<title>10</title>
<polygon fill="none" stroke="#000000" points="220.1326,-108 109.9502,-108 109.9502,-72 220.1326,-72 220.1326,-108"/>
<text text-anchor="middle" x="165.0414" y="-85.8" font-family="Times,serif" font-size="14.00" fill="#000000">ReturnStatement</text>
</g>
<!-- 9&#45;&gt;10 -->
<g id="edge10" class="edge">
<title>9&#45;&gt;10</title>
<path fill="none" stroke="#000000" d="M166.5367,-143.8314C166.3228,-136.131 166.0685,-126.9743 165.8308,-118.4166"/>
<polygon fill="#000000" stroke="#000000" points="169.3293,-118.3122 165.5529,-108.4133 162.332,-118.5066 169.3293,-118.3122"/>
</g>
<!-- 11 -->
<g id="node12" class="node">
<title>11</title>
<polygon fill="none" stroke="#000000" points="199.1243,-36 130.9585,-36 130.9585,0 199.1243,0 199.1243,-36"/>
<text text-anchor="middle" x="165.0414" y="-13.8" font-family="Times,serif" font-size="14.00" fill="#000000">Identifier</text>
</g>
<!-- 10&#45;&gt;11 -->
<g id="edge11" class="edge">
<title>10&#45;&gt;11</title>
<path fill="none" stroke="#000000" d="M165.0414,-71.8314C165.0414,-64.131 165.0414,-54.9743 165.0414,-46.4166"/>
<polygon fill="#000000" stroke="#000000" points="168.5415,-46.4132 165.0414,-36.4133 161.5415,-46.4133 168.5415,-46.4132"/>
</g>
<!-- 13 -->
<g id="node14" class="node">
<title>13</title>
<polygon fill="none" stroke="#000000" points="348.1326,-108 237.9502,-108 237.9502,-72 348.1326,-72 348.1326,-108"/>
<text text-anchor="middle" x="293.0414" y="-85.8" font-family="Times,serif" font-size="14.00" fill="#000000">ReturnStatement</text>
</g>
<!-- 12&#45;&gt;13 -->
<g id="edge13" class="edge">
<title>12&#45;&gt;13</title>
<path fill="none" stroke="#000000" d="M291.5461,-143.8314C291.76,-136.131 292.0143,-126.9743 292.252,-118.4166"/>
<polygon fill="#000000" stroke="#000000" points="295.7508,-118.5066 292.5299,-108.4133 288.7535,-118.3122 295.7508,-118.5066"/>
</g>
<!-- 14 -->
<g id="node15" class="node">
<title>14</title>
<polygon fill="none" stroke="#000000" points="327.1243,-36 258.9585,-36 258.9585,0 327.1243,0 327.1243,-36"/>
<text text-anchor="middle" x="293.0414" y="-13.8" font-family="Times,serif" font-size="14.00" fill="#000000">Identifier</text>
</g>
<!-- 13&#45;&gt;14 -->
<g id="edge14" class="edge">
<title>13&#45;&gt;14</title>
<path fill="none" stroke="#000000" d="M293.0414,-71.8314C293.0414,-64.131 293.0414,-54.9743 293.0414,-46.4166"/>
<polygon fill="#000000" stroke="#000000" points="296.5415,-46.4132 293.0414,-36.4133 289.5415,-46.4133 296.5415,-46.4132"/>
</g>
</g>
</svg>
