<?xml version="1.0" encoding="UTF-8" standalone="no"?>
<!DOCTYPE svg PUBLIC "-//W3C//DTD SVG 1.1//EN"
 "http://www.w3.org/Graphics/SVG/1.1/DTD/svg11.dtd">
<!-- Generated by graphviz version 2.40.1 (20161225.0304)
 -->
<!-- Title: CFG Pages: 1 -->
<svg width="263pt" height="457pt"
 viewBox="0.00 0.00 262.73 456.80" xmlns="http://www.w3.org/2000/svg" xmlns:xlink="http://www.w3.org/1999/xlink">
<g id="graph0" class="graph" transform="scale(1 1) rotate(0) translate(4 452.8)">
<title>CFG</title>
<polygon fill="#ffffff" stroke="transparent" points="-4,4 -4,-452.8 258.726,-452.8 258.726,4 -4,4"/>
<text text-anchor="middle" x="127.363" y="-426.8" font-family="Times,serif" font-size="20.00" fill="#000000">Complexité cyclomatique = 2</text>
<!-- 0 -->
<g id="node1" class="node">
<title>0</title>
<polygon fill="#00ff00" stroke="#000000" points="154.363,-416.8 100.363,-416.8 100.363,-380.8 154.363,-380.8 154.363,-416.8"/>
<text text-anchor="middle" x="127.363" y="-394.6" font-family="Arial" font-size="14.00" fill="#000000">Start</text>
</g>
<!-- 1 -->
<g id="node2" class="node">
<title>1</title>
<polygon fill="#ffff00" stroke="#000000" points="154.363,-343.8 100.363,-343.8 100.363,-307.8 154.363,-307.8 154.363,-343.8"/>
<text text-anchor="middle" x="127.363" y="-321.6" font-family="Arial" font-size="14.00" fill="#000000">if</text>
</g>
<!-- 0&#45;&gt;1 -->
<g id="edge1" class="edge">
<title>0&#45;&gt;1</title>
<path fill="none" stroke="#000000" d="M127.363,-380.7551C127.363,-372.6828 127.363,-362.9764 127.363,-353.9817"/>
<polygon fill="#000000" stroke="#000000" points="130.8631,-353.8903 127.363,-343.8904 123.8631,-353.8904 130.8631,-353.8903"/>
</g>
<!-- 2 -->
<g id="node3" class="node">
<title>2</title>
<polygon fill="#add8e6" stroke="#000000" points="118.363,-255 64.363,-255 64.363,-219 118.363,-219 118.363,-255"/>
<text text-anchor="middle" x="91.363" y="-232.8" font-family="Arial" font-size="14.00" fill="#000000">then</text>
</g>
<!-- 1&#45;&gt;2 -->
<g id="edge2" class="edge">
<title>1&#45;&gt;2</title>
<path fill="none" stroke="#00ff00" d="M117.4409,-307.7403C114.5167,-302.0814 111.434,-295.7567 108.9352,-289.8 105.6243,-281.9073 102.5005,-273.1539 99.8308,-265.0808"/>
<polygon fill="#00ff00" stroke="#00ff00" points="103.0934,-263.7922 96.7122,-255.3347 96.4264,-265.9256 103.0934,-263.7922"/>
<text text-anchor="middle" x="121.5769" y="-277.2" font-family="Times,serif" font-size="14.00" fill="#000000">True</text>
</g>
<!-- 3 -->
<g id="node4" class="node">
<title>3</title>
<polygon fill="#add8e6" stroke="#000000" points="190.363,-255 136.363,-255 136.363,-219 190.363,-219 190.363,-255"/>
<text text-anchor="middle" x="163.363" y="-232.8" font-family="Arial" font-size="14.00" fill="#000000">else</text>
</g>
<!-- 1&#45;&gt;3 -->
<g id="edge3" class="edge">
<title>1&#45;&gt;3</title>
<path fill="none" stroke="#ff0000" d="M134.8222,-307.4006C139.8271,-295.0552 146.5107,-278.5689 152.152,-264.6539"/>
<polygon fill="#ff0000" stroke="#ff0000" points="155.523,-265.6544 156.0365,-255.072 149.0358,-263.0244 155.523,-265.6544"/>
<text text-anchor="middle" x="163.1365" y="-277.2" font-family="Times,serif" font-size="14.00" fill="#000000">False</text>
</g>
<!-- 5 -->
<g id="node6" class="node">
<title>5</title>
<polygon fill="#d3d3d3" stroke="#000000" points="118.363,-182 64.363,-182 64.363,-146 118.363,-146 118.363,-182"/>
<text text-anchor="middle" x="91.363" y="-159.8" font-family="Arial" font-size="14.00" fill="#000000">return</text>
</g>
<!-- 2&#45;&gt;5 -->
<g id="edge4" class="edge">
<title>2&#45;&gt;5</title>
<path fill="none" stroke="#000000" d="M91.363,-218.9551C91.363,-210.8828 91.363,-201.1764 91.363,-192.1817"/>
<polygon fill="#000000" stroke="#000000" points="94.8631,-192.0903 91.363,-182.0904 87.8631,-192.0904 94.8631,-192.0903"/>
</g>
<!-- 6 -->
<g id="node7" class="node">
<title>6</title>
<polygon fill="#d3d3d3" stroke="#000000" points="190.363,-182 136.363,-182 136.363,-146 190.363,-146 190.363,-182"/>
<text text-anchor="middle" x="163.363" y="-159.8" font-family="Arial" font-size="14.00" fill="#000000">return</text>
</g>
<!-- 3&#45;&gt;6 -->
<g id="edge6" class="edge">
<title>3&#45;&gt;6</title>
<path fill="none" stroke="#000000" d="M163.363,-218.9551C163.363,-210.8828 163.363,-201.1764 163.363,-192.1817"/>
<polygon fill="#000000" stroke="#000000" points="166.8631,-192.0903 163.363,-182.0904 159.8631,-192.0904 166.8631,-192.0903"/>
</g>
<!-- 4 -->
<g id="node5" class="node">
<title>4</title>
<polygon fill="#add8e6" stroke="#000000" points="154.033,-109 98.693,-109 98.693,-73 154.033,-73 154.033,-109"/>
<text text-anchor="middle" x="126.363" y="-86.8" font-family="Arial" font-size="14.00" fill="#000000">merge</text>
</g>
<!-- 7 -->
<g id="node8" class="node">
<title>7</title>
<polygon fill="#ffa500" stroke="#000000" points="153.363,-36 99.363,-36 99.363,0 153.363,0 153.363,-36"/>
<text text-anchor="middle" x="126.363" y="-13.8" font-family="Arial" font-size="14.00" fill="#000000">End</text>
</g>
<!-- 4&#45;&gt;7 -->
<g id="edge8" class="edge">
<title>4&#45;&gt;7</title>
<path fill="none" stroke="#000000" d="M126.363,-72.9551C126.363,-64.8828 126.363,-55.1764 126.363,-46.1817"/>
<polygon fill="#000000" stroke="#000000" points="129.8631,-46.0903 126.363,-36.0904 122.8631,-46.0904 129.8631,-46.0903"/>
</g>
<!-- 5&#45;&gt;4 -->
<g id="edge5" class="edge">
<title>5&#45;&gt;4</title>
<path fill="none" stroke="#000000" d="M100.0147,-145.9551C104.0111,-137.6196 108.8431,-127.5416 113.272,-118.3042"/>
<polygon fill="#000000" stroke="#000000" points="116.5222,-119.6207 117.6895,-109.0904 110.2102,-116.5944 116.5222,-119.6207"/>
</g>
<!-- 6&#45;&gt;4 -->
<g id="edge7" class="edge">
<title>6&#45;&gt;4</title>
<path fill="none" stroke="#000000" d="M154.2169,-145.9551C149.9476,-137.5319 144.7765,-127.3292 140.0544,-118.0128"/>
<polygon fill="#000000" stroke="#000000" points="143.175,-116.4277 135.5321,-109.0904 136.9312,-119.5924 143.175,-116.4277"/>
</g>
</g>
</svg>
