<?xml version="1.0" encoding="UTF-8" standalone="no"?>
<!DOCTYPE svg PUBLIC "-//W3C//DTD SVG 1.1//EN"
 "http://www.w3.org/Graphics/SVG/1.1/DTD/svg11.dtd">
<!-- Generated by graphviz version 2.40.1 (20161225.0304)
 -->
<!-- Title: CFG Pages: 1 -->
<svg width="320pt" height="1215pt"
 viewBox="0.00 0.00 319.95 1215.40" xmlns="http://www.w3.org/2000/svg" xmlns:xlink="http://www.w3.org/1999/xlink">
<g id="graph0" class="graph" transform="scale(1 1) rotate(0) translate(4 1211.4)">
<title>CFG</title>
<polygon fill="#ffffff" stroke="transparent" points="-4,4 -4,-1211.4 315.9516,-1211.4 315.9516,4 -4,4"/>
<text text-anchor="middle" x="155.9758" y="-1185.4" font-family="Times,serif" font-size="20.00" fill="#000000">Complexité cyclomatique = 6</text>
<!-- 0 -->
<g id="node1" class="node">
<title>0</title>
<polygon fill="#00ff00" stroke="#000000" points="199.9516,-1175.4 145.9516,-1175.4 145.9516,-1139.4 199.9516,-1139.4 199.9516,-1175.4"/>
<text text-anchor="middle" x="172.9516" y="-1153.2" font-family="Arial" font-size="14.00" fill="#000000">Start</text>
</g>
<!-- 1 -->
<g id="node2" class="node">
<title>1</title>
<polygon fill="#ffff00" stroke="#000000" points="199.9516,-1102.4 145.9516,-1102.4 145.9516,-1066.4 199.9516,-1066.4 199.9516,-1102.4"/>
<text text-anchor="middle" x="172.9516" y="-1080.2" font-family="Arial" font-size="14.00" fill="#000000">if</text>
</g>
<!-- 0&#45;&gt;1 -->
<g id="edge1" class="edge">
<title>0&#45;&gt;1</title>
<path fill="none" stroke="#000000" d="M172.9516,-1139.3551C172.9516,-1131.2828 172.9516,-1121.5764 172.9516,-1112.5817"/>
<polygon fill="#000000" stroke="#000000" points="176.4517,-1112.4903 172.9516,-1102.4904 169.4517,-1112.4904 176.4517,-1112.4903"/>
</g>
<!-- 2 -->
<g id="node3" class="node">
<title>2</title>
<polygon fill="#add8e6" stroke="#000000" points="164.9516,-1013.6 110.9516,-1013.6 110.9516,-977.6 164.9516,-977.6 164.9516,-1013.6"/>
<text text-anchor="middle" x="137.9516" y="-991.4" font-family="Arial" font-size="14.00" fill="#000000">then</text>
</g>
<!-- 1&#45;&gt;2 -->
<g id="edge2" class="edge">
<title>1&#45;&gt;2</title>
<path fill="none" stroke="#00ff00" d="M163.6201,-1066.2929C160.8567,-1060.632 157.9293,-1054.3182 155.5238,-1048.4 152.3009,-1040.4709 149.2042,-1031.7063 146.5323,-1023.6341"/>
<polygon fill="#00ff00" stroke="#00ff00" points="149.7932,-1022.3414 143.3976,-1013.8947 143.1298,-1024.4861 149.7932,-1022.3414"/>
<text text-anchor="middle" x="168.1655" y="-1035.8" font-family="Times,serif" font-size="14.00" fill="#000000">True</text>
</g>
<!-- 3 -->
<g id="node4" class="node">
<title>3</title>
<polygon fill="#add8e6" stroke="#000000" points="237.9516,-1013.6 183.9516,-1013.6 183.9516,-977.6 237.9516,-977.6 237.9516,-1013.6"/>
<text text-anchor="middle" x="210.9516" y="-991.4" font-family="Arial" font-size="14.00" fill="#000000">else</text>
</g>
<!-- 1&#45;&gt;3 -->
<g id="edge3" class="edge">
<title>1&#45;&gt;3</title>
<path fill="none" stroke="#ff0000" d="M180.8252,-1066.0006C186.1082,-1053.6552 193.1631,-1037.1689 199.1177,-1023.2539"/>
<polygon fill="#ff0000" stroke="#ff0000" points="202.5016,-1024.2426 203.2181,-1013.672 196.0661,-1021.4886 202.5016,-1024.2426"/>
<text text-anchor="middle" x="209.7251" y="-1035.8" font-family="Times,serif" font-size="14.00" fill="#000000">False</text>
</g>
<!-- 5 -->
<g id="node6" class="node">
<title>5</title>
<polygon fill="#ffff00" stroke="#000000" points="158.9516,-940.6 104.9516,-940.6 104.9516,-904.6 158.9516,-904.6 158.9516,-940.6"/>
<text text-anchor="middle" x="131.9516" y="-918.4" font-family="Arial" font-size="14.00" fill="#000000">if</text>
</g>
<!-- 2&#45;&gt;5 -->
<g id="edge4" class="edge">
<title>2&#45;&gt;5</title>
<path fill="none" stroke="#000000" d="M136.4685,-977.5551C135.805,-969.4828 135.0072,-959.7764 134.2679,-950.7817"/>
<polygon fill="#000000" stroke="#000000" points="137.746,-950.37 133.4385,-940.6904 130.7695,-950.9435 137.746,-950.37"/>
</g>
<!-- 10 -->
<g id="node11" class="node">
<title>10</title>
<polygon fill="#ffff00" stroke="#000000" points="238.9516,-940.6 184.9516,-940.6 184.9516,-904.6 238.9516,-904.6 238.9516,-940.6"/>
<text text-anchor="middle" x="211.9516" y="-918.4" font-family="Arial" font-size="14.00" fill="#000000">if</text>
</g>
<!-- 3&#45;&gt;10 -->
<g id="edge11" class="edge">
<title>3&#45;&gt;10</title>
<path fill="none" stroke="#000000" d="M211.1988,-977.5551C211.3094,-969.4828 211.4423,-959.7764 211.5655,-950.7817"/>
<polygon fill="#000000" stroke="#000000" points="215.0664,-950.7374 211.7038,-940.6904 208.067,-950.6414 215.0664,-950.7374"/>
</g>
<!-- 4 -->
<g id="node5" class="node">
<title>4</title>
<polygon fill="#add8e6" stroke="#000000" points="198.6216,-597.8 143.2816,-597.8 143.2816,-561.8 198.6216,-561.8 198.6216,-597.8"/>
<text text-anchor="middle" x="170.9516" y="-575.6" font-family="Arial" font-size="14.00" fill="#000000">merge</text>
</g>
<!-- 15 -->
<g id="node16" class="node">
<title>15</title>
<polygon fill="#add8e6" stroke="#000000" points="197.9516,-524.8 143.9516,-524.8 143.9516,-488.8 197.9516,-488.8 197.9516,-524.8"/>
<text text-anchor="middle" x="170.9516" y="-502.6" font-family="Arial" font-size="14.00" fill="#000000">for</text>
</g>
<!-- 4&#45;&gt;15 -->
<g id="edge18" class="edge">
<title>4&#45;&gt;15</title>
<path fill="none" stroke="#000000" d="M170.9516,-561.7551C170.9516,-553.6828 170.9516,-543.9764 170.9516,-534.9817"/>
<polygon fill="#000000" stroke="#000000" points="174.4517,-534.8903 170.9516,-524.8904 167.4517,-534.8904 174.4517,-534.8903"/>
</g>
<!-- 6 -->
<g id="node7" class="node">
<title>6</title>
<polygon fill="#add8e6" stroke="#000000" points="97.9516,-851.8 43.9516,-851.8 43.9516,-815.8 97.9516,-815.8 97.9516,-851.8"/>
<text text-anchor="middle" x="70.9516" y="-829.6" font-family="Arial" font-size="14.00" fill="#000000">then</text>
</g>
<!-- 5&#45;&gt;6 -->
<g id="edge5" class="edge">
<title>5&#45;&gt;6</title>
<path fill="none" stroke="#00ff00" d="M104.8265,-907.4753C96.911,-901.8608 88.9424,-894.8228 83.5238,-886.6 78.7318,-879.3281 75.7612,-870.425 73.9215,-862.0163"/>
<polygon fill="#00ff00" stroke="#00ff00" points="77.3657,-861.3933 72.1919,-852.1477 70.4708,-862.6018 77.3657,-861.3933"/>
<text text-anchor="middle" x="97.1655" y="-874" font-family="Times,serif" font-size="14.00" fill="#000000">True</text>
</g>
<!-- 7 -->
<g id="node8" class="node">
<title>7</title>
<polygon fill="#add8e6" stroke="#000000" points="158.9516,-797.8 104.9516,-797.8 104.9516,-761.8 158.9516,-761.8 158.9516,-797.8"/>
<text text-anchor="middle" x="131.9516" y="-775.6" font-family="Arial" font-size="14.00" fill="#000000">else</text>
</g>
<!-- 5&#45;&gt;7 -->
<g id="edge6" class="edge">
<title>5&#45;&gt;7</title>
<path fill="none" stroke="#ff0000" d="M131.9516,-904.5143C131.9516,-880.2908 131.9516,-837.0461 131.9516,-808.3888"/>
<polygon fill="#ff0000" stroke="#ff0000" points="135.4517,-808.1899 131.9516,-798.1899 128.4517,-808.19 135.4517,-808.1899"/>
<text text-anchor="middle" x="146.7251" y="-874" font-family="Times,serif" font-size="14.00" fill="#000000">False</text>
</g>
<!-- 9 -->
<g id="node10" class="node">
<title>9</title>
<polygon fill="#add8e6" stroke="#000000" points="103.8548,-743.8 .0484,-743.8 .0484,-707.8 103.8548,-707.8 103.8548,-743.8"/>
<text text-anchor="middle" x="51.9516" y="-721.6" font-family="Arial" font-size="14.00" fill="#000000">console.log(a)</text>
</g>
<!-- 6&#45;&gt;9 -->
<g id="edge7" class="edge">
<title>6&#45;&gt;9</title>
<path fill="none" stroke="#000000" d="M67.7285,-815.4793C64.7627,-798.621 60.3195,-773.3651 56.9034,-753.947"/>
<polygon fill="#000000" stroke="#000000" points="60.3069,-753.0925 55.1271,-743.8502 53.4128,-754.3054 60.3069,-753.0925"/>
</g>
<!-- 8 -->
<g id="node9" class="node">
<title>8</title>
<polygon fill="#add8e6" stroke="#000000" points="159.6216,-670.8 104.2816,-670.8 104.2816,-634.8 159.6216,-634.8 159.6216,-670.8"/>
<text text-anchor="middle" x="131.9516" y="-648.6" font-family="Arial" font-size="14.00" fill="#000000">merge</text>
</g>
<!-- 7&#45;&gt;8 -->
<g id="edge9" class="edge">
<title>7&#45;&gt;8</title>
<path fill="none" stroke="#000000" d="M131.9516,-761.604C131.9516,-740.5735 131.9516,-705.7094 131.9516,-681.1236"/>
<polygon fill="#000000" stroke="#000000" points="135.4517,-680.9622 131.9516,-670.9622 128.4517,-680.9623 135.4517,-680.9622"/>
</g>
<!-- 8&#45;&gt;4 -->
<g id="edge10" class="edge">
<title>8&#45;&gt;4</title>
<path fill="none" stroke="#000000" d="M141.5921,-634.7551C146.0921,-626.3319 151.5428,-616.1292 156.5201,-606.8128"/>
<polygon fill="#000000" stroke="#000000" points="159.6618,-608.3598 161.2869,-597.8904 153.4876,-605.0613 159.6618,-608.3598"/>
</g>
<!-- 9&#45;&gt;8 -->
<g id="edge8" class="edge">
<title>9&#45;&gt;8</title>
<path fill="none" stroke="#000000" d="M71.7269,-707.7551C81.6309,-698.7177 93.7797,-687.6319 104.5654,-677.7899"/>
<polygon fill="#000000" stroke="#000000" points="107.0989,-680.2163 112.1265,-670.8904 102.3805,-675.0455 107.0989,-680.2163"/>
</g>
<!-- 11 -->
<g id="node12" class="node">
<title>11</title>
<polygon fill="#add8e6" stroke="#000000" points="238.9516,-851.8 184.9516,-851.8 184.9516,-815.8 238.9516,-815.8 238.9516,-851.8"/>
<text text-anchor="middle" x="211.9516" y="-829.6" font-family="Arial" font-size="14.00" fill="#000000">then</text>
</g>
<!-- 10&#45;&gt;11 -->
<g id="edge12" class="edge">
<title>10&#45;&gt;11</title>
<path fill="none" stroke="#00ff00" d="M211.9516,-904.2006C211.9516,-892.0949 211.9516,-876.0076 211.9516,-862.2674"/>
<polygon fill="#00ff00" stroke="#00ff00" points="215.4517,-861.872 211.9516,-851.872 208.4517,-861.8721 215.4517,-861.872"/>
<text text-anchor="middle" x="225.1655" y="-874" font-family="Times,serif" font-size="14.00" fill="#000000">True</text>
</g>
<!-- 12 -->
<g id="node13" class="node">
<title>12</title>
<polygon fill="#add8e6" stroke="#000000" points="311.9516,-797.8 257.9516,-797.8 257.9516,-761.8 311.9516,-761.8 311.9516,-797.8"/>
<text text-anchor="middle" x="284.9516" y="-775.6" font-family="Arial" font-size="14.00" fill="#000000">else</text>
</g>
<!-- 10&#45;&gt;12 -->
<g id="edge13" class="edge">
<title>10&#45;&gt;12</title>
<path fill="none" stroke="#ff0000" d="M229.0082,-904.3768C233.5856,-898.9196 238.2784,-892.7453 241.9516,-886.6 257.0019,-861.4211 268.9279,-830.012 276.3657,-807.7908"/>
<polygon fill="#ff0000" stroke="#ff0000" points="279.7901,-808.578 279.5563,-797.9858 273.1336,-806.4119 279.7901,-808.578"/>
<text text-anchor="middle" x="264.7251" y="-874" font-family="Times,serif" font-size="14.00" fill="#000000">False</text>
</g>
<!-- 14 -->
<g id="node15" class="node">
<title>14</title>
<polygon fill="#add8e6" stroke="#000000" points="263.5723,-743.8 160.3309,-743.8 160.3309,-707.8 263.5723,-707.8 263.5723,-743.8"/>
<text text-anchor="middle" x="211.9516" y="-721.6" font-family="Arial" font-size="14.00" fill="#000000">console.log(c)</text>
</g>
<!-- 11&#45;&gt;14 -->
<g id="edge14" class="edge">
<title>11&#45;&gt;14</title>
<path fill="none" stroke="#000000" d="M211.9516,-815.4793C211.9516,-798.621 211.9516,-773.3651 211.9516,-753.947"/>
<polygon fill="#000000" stroke="#000000" points="215.4517,-753.8501 211.9516,-743.8502 208.4517,-753.8502 215.4517,-753.8501"/>
</g>
<!-- 13 -->
<g id="node14" class="node">
<title>13</title>
<polygon fill="#add8e6" stroke="#000000" points="239.6216,-670.8 184.2816,-670.8 184.2816,-634.8 239.6216,-634.8 239.6216,-670.8"/>
<text text-anchor="middle" x="211.9516" y="-648.6" font-family="Arial" font-size="14.00" fill="#000000">merge</text>
</g>
<!-- 12&#45;&gt;13 -->
<g id="edge16" class="edge">
<title>12&#45;&gt;13</title>
<path fill="none" stroke="#000000" d="M285.1801,-761.5647C284.6337,-746.3253 282.0834,-724.4715 272.9516,-707.8 266.6274,-696.2543 256.9315,-685.8831 247.1181,-677.3409"/>
<polygon fill="#000000" stroke="#000000" points="249.2306,-674.5466 239.2849,-670.8948 244.7825,-679.9517 249.2306,-674.5466"/>
</g>
<!-- 13&#45;&gt;4 -->
<g id="edge17" class="edge">
<title>13&#45;&gt;4</title>
<path fill="none" stroke="#000000" d="M201.8168,-634.7551C197.0859,-626.3319 191.3557,-616.1292 186.1231,-606.8128"/>
<polygon fill="#000000" stroke="#000000" points="189.0606,-604.8954 181.1119,-597.8904 182.9573,-608.3233 189.0606,-604.8954"/>
</g>
<!-- 14&#45;&gt;13 -->
<g id="edge15" class="edge">
<title>14&#45;&gt;13</title>
<path fill="none" stroke="#000000" d="M211.9516,-707.7551C211.9516,-699.6828 211.9516,-689.9764 211.9516,-680.9817"/>
<polygon fill="#000000" stroke="#000000" points="215.4517,-680.8903 211.9516,-670.8904 208.4517,-680.8904 215.4517,-680.8903"/>
</g>
<!-- 16 -->
<g id="node17" class="node">
<title>16</title>
<polygon fill="#ffff00" stroke="#000000" points="170.9516,-451.8 116.9516,-451.8 116.9516,-415.8 170.9516,-415.8 170.9516,-451.8"/>
<text text-anchor="middle" x="143.9516" y="-429.6" font-family="Arial" font-size="14.00" fill="#000000">if</text>
</g>
<!-- 15&#45;&gt;16 -->
<g id="edge19" class="edge">
<title>15&#45;&gt;16</title>
<path fill="none" stroke="#000000" d="M164.2774,-488.7551C161.2269,-480.5074 157.5454,-470.5536 154.1584,-461.3962"/>
<polygon fill="#000000" stroke="#000000" points="157.3942,-460.0552 150.6426,-451.8904 150.8289,-462.4836 157.3942,-460.0552"/>
</g>
<!-- 17 -->
<g id="node18" class="node">
<title>17</title>
<polygon fill="#add8e6" stroke="#000000" points="119.9516,-363 65.9516,-363 65.9516,-327 119.9516,-327 119.9516,-363"/>
<text text-anchor="middle" x="92.9516" y="-340.8" font-family="Arial" font-size="14.00" fill="#000000">then</text>
</g>
<!-- 16&#45;&gt;17 -->
<g id="edge20" class="edge">
<title>16&#45;&gt;17</title>
<path fill="none" stroke="#00ff00" d="M118.6213,-415.7811C112.881,-410.5826 107.356,-404.4861 103.5238,-397.8 99.2746,-390.3862 96.7119,-381.5352 95.1732,-373.2186"/>
<polygon fill="#00ff00" stroke="#00ff00" points="98.6087,-372.5189 93.7218,-363.1184 91.6798,-373.5146 98.6087,-372.5189"/>
<text text-anchor="middle" x="117.1655" y="-385.2" font-family="Times,serif" font-size="14.00" fill="#000000">True</text>
</g>
<!-- 18 -->
<g id="node19" class="node">
<title>18</title>
<polygon fill="#add8e6" stroke="#000000" points="180.9516,-309 126.9516,-309 126.9516,-273 180.9516,-273 180.9516,-309"/>
<text text-anchor="middle" x="153.9516" y="-286.8" font-family="Arial" font-size="14.00" fill="#000000">else</text>
</g>
<!-- 16&#45;&gt;18 -->
<g id="edge21" class="edge">
<title>16&#45;&gt;18</title>
<path fill="none" stroke="#ff0000" d="M145.2181,-415.7143C146.9144,-391.4908 149.9428,-348.2461 151.9496,-319.5888"/>
<polygon fill="#ff0000" stroke="#ff0000" points="155.4566,-319.61 152.6638,-309.3899 148.4737,-319.121 155.4566,-319.61"/>
<text text-anchor="middle" x="161.7251" y="-385.2" font-family="Times,serif" font-size="14.00" fill="#000000">False</text>
</g>
<!-- 20 -->
<g id="node21" class="node">
<title>20</title>
<polygon fill="#add8e6" stroke="#000000" points="132.6791,-255 33.2241,-255 33.2241,-219 132.6791,-219 132.6791,-255"/>
<text text-anchor="middle" x="82.9516" y="-232.8" font-family="Arial" font-size="14.00" fill="#000000">console.log(i)</text>
</g>
<!-- 17&#45;&gt;20 -->
<g id="edge22" class="edge">
<title>17&#45;&gt;20</title>
<path fill="none" stroke="#000000" d="M91.2552,-326.6793C89.6943,-309.821 87.3558,-284.5651 85.5578,-265.147"/>
<polygon fill="#000000" stroke="#000000" points="89.0301,-264.6848 84.6229,-255.0502 82.0599,-265.3303 89.0301,-264.6848"/>
</g>
<!-- 19 -->
<g id="node20" class="node">
<title>19</title>
<polygon fill="#add8e6" stroke="#000000" points="188.6216,-182 133.2816,-182 133.2816,-146 188.6216,-146 188.6216,-182"/>
<text text-anchor="middle" x="160.9516" y="-159.8" font-family="Arial" font-size="14.00" fill="#000000">merge</text>
</g>
<!-- 18&#45;&gt;19 -->
<g id="edge24" class="edge">
<title>18&#45;&gt;19</title>
<path fill="none" stroke="#000000" d="M154.9545,-272.804C156.1137,-251.7735 158.0353,-216.9094 159.3905,-192.3236"/>
<polygon fill="#000000" stroke="#000000" points="162.8948,-192.3397 159.9505,-182.1622 155.9054,-191.9544 162.8948,-192.3397"/>
</g>
<!-- 19&#45;&gt;15 -->
<g id="edge25" class="edge">
<title>19&#45;&gt;15</title>
<path fill="none" stroke="#000000" d="M176.627,-182.1707C187.0946,-196.1847 198.9516,-216.5683 198.9516,-237 198.9516,-433.8 198.9516,-433.8 198.9516,-433.8 198.9516,-449.638 193.135,-466.2034 186.804,-479.543"/>
<polygon fill="#000000" stroke="#000000" points="183.5959,-478.13 182.1789,-488.6297 189.8343,-481.3054 183.5959,-478.13"/>
</g>
<!-- 21 -->
<g id="node22" class="node">
<title>21</title>
<polygon fill="#add8e6" stroke="#000000" points="193.1848,-109 128.7184,-109 128.7184,-73 193.1848,-73 193.1848,-109"/>
<text text-anchor="middle" x="160.9516" y="-86.8" font-family="Arial" font-size="14.00" fill="#000000">return b</text>
</g>
<!-- 19&#45;&gt;21 -->
<g id="edge26" class="edge">
<title>19&#45;&gt;21</title>
<path fill="none" stroke="#000000" d="M160.9516,-145.9551C160.9516,-137.8828 160.9516,-128.1764 160.9516,-119.1817"/>
<polygon fill="#000000" stroke="#000000" points="164.4517,-119.0903 160.9516,-109.0904 157.4517,-119.0904 164.4517,-119.0903"/>
</g>
<!-- 20&#45;&gt;19 -->
<g id="edge23" class="edge">
<title>20&#45;&gt;19</title>
<path fill="none" stroke="#000000" d="M102.2325,-218.9551C111.8889,-209.9177 123.734,-198.8319 134.25,-188.9899"/>
<polygon fill="#000000" stroke="#000000" points="136.7126,-191.479 141.6222,-182.0904 131.9293,-186.3681 136.7126,-191.479"/>
</g>
<!-- 22 -->
<g id="node23" class="node">
<title>22</title>
<polygon fill="#ffa500" stroke="#000000" points="187.9516,-36 133.9516,-36 133.9516,0 187.9516,0 187.9516,-36"/>
<text text-anchor="middle" x="160.9516" y="-13.8" font-family="Arial" font-size="14.00" fill="#000000">End</text>
</g>
<!-- 21&#45;&gt;22 -->
<g id="edge27" class="edge">
<title>21&#45;&gt;22</title>
<path fill="none" stroke="#000000" d="M160.9516,-72.9551C160.9516,-64.8828 160.9516,-55.1764 160.9516,-46.1817"/>
<polygon fill="#000000" stroke="#000000" points="164.4517,-46.0903 160.9516,-36.0904 157.4517,-46.0904 164.4517,-46.0903"/>
</g>
</g>
</svg>
