<?xml version="1.0" encoding="UTF-8" standalone="no"?>
<!DOCTYPE svg PUBLIC "-//W3C//DTD SVG 1.1//EN"
 "http://www.w3.org/Graphics/SVG/1.1/DTD/svg11.dtd">
<!-- Generated by graphviz version 2.40.1 (20161225.0304)
 -->
<!-- Title: CFG Pages: 1 -->
<svg width="263pt" height="1215pt"
 viewBox="0.00 0.00 262.73 1215.40" xmlns="http://www.w3.org/2000/svg" xmlns:xlink="http://www.w3.org/1999/xlink">
<g id="graph0" class="graph" transform="scale(1 1) rotate(0) translate(4 1211.4)">
<title>CFG</title>
<polygon fill="#ffffff" stroke="transparent" points="-4,4 -4,-1211.4 258.726,-1211.4 258.726,4 -4,4"/>
<text text-anchor="middle" x="127.363" y="-1185.4" font-family="Times,serif" font-size="20.00" fill="#000000">Complexité cyclomatique = 6</text>
<!-- 0 -->
<g id="node1" class="node">
<title>0</title>
<polygon fill="#00ff00" stroke="#000000" points="154.863,-1175.4 100.863,-1175.4 100.863,-1139.4 154.863,-1139.4 154.863,-1175.4"/>
<text text-anchor="middle" x="127.863" y="-1153.2" font-family="Arial" font-size="14.00" fill="#000000">Start</text>
</g>
<!-- 1 -->
<g id="node2" class="node">
<title>1</title>
<polygon fill="#ffff00" stroke="#000000" points="154.863,-1102.4 100.863,-1102.4 100.863,-1066.4 154.863,-1066.4 154.863,-1102.4"/>
<text text-anchor="middle" x="127.863" y="-1080.2" font-family="Arial" font-size="14.00" fill="#000000">if</text>
</g>
<!-- 0&#45;&gt;1 -->
<g id="edge1" class="edge">
<title>0&#45;&gt;1</title>
<path fill="none" stroke="#000000" d="M127.863,-1139.3551C127.863,-1131.2828 127.863,-1121.5764 127.863,-1112.5817"/>
<polygon fill="#000000" stroke="#000000" points="131.3631,-1112.4903 127.863,-1102.4904 124.3631,-1112.4904 131.3631,-1112.4903"/>
</g>
<!-- 2 -->
<g id="node3" class="node">
<title>2</title>
<polygon fill="#add8e6" stroke="#000000" points="119.863,-1013.6 65.863,-1013.6 65.863,-977.6 119.863,-977.6 119.863,-1013.6"/>
<text text-anchor="middle" x="92.863" y="-991.4" font-family="Arial" font-size="14.00" fill="#000000">then</text>
</g>
<!-- 1&#45;&gt;2 -->
<g id="edge2" class="edge">
<title>1&#45;&gt;2</title>
<path fill="none" stroke="#00ff00" d="M118.5315,-1066.2929C115.7681,-1060.632 112.8407,-1054.3182 110.4352,-1048.4 107.2123,-1040.4709 104.1156,-1031.7063 101.4437,-1023.6341"/>
<polygon fill="#00ff00" stroke="#00ff00" points="104.7046,-1022.3414 98.309,-1013.8947 98.0412,-1024.4861 104.7046,-1022.3414"/>
<text text-anchor="middle" x="123.0769" y="-1035.8" font-family="Times,serif" font-size="14.00" fill="#000000">True</text>
</g>
<!-- 3 -->
<g id="node4" class="node">
<title>3</title>
<polygon fill="#add8e6" stroke="#000000" points="191.863,-1013.6 137.863,-1013.6 137.863,-977.6 191.863,-977.6 191.863,-1013.6"/>
<text text-anchor="middle" x="164.863" y="-991.4" font-family="Arial" font-size="14.00" fill="#000000">else</text>
</g>
<!-- 1&#45;&gt;3 -->
<g id="edge3" class="edge">
<title>1&#45;&gt;3</title>
<path fill="none" stroke="#ff0000" d="M135.5294,-1066.0006C140.6733,-1053.6552 147.5426,-1037.1689 153.3405,-1023.2539"/>
<polygon fill="#ff0000" stroke="#ff0000" points="156.7176,-1024.249 157.333,-1013.672 150.256,-1021.5566 156.7176,-1024.249"/>
<text text-anchor="middle" x="163.6365" y="-1035.8" font-family="Times,serif" font-size="14.00" fill="#000000">False</text>
</g>
<!-- 5 -->
<g id="node6" class="node">
<title>5</title>
<polygon fill="#ffff00" stroke="#000000" points="119.863,-940.6 65.863,-940.6 65.863,-904.6 119.863,-904.6 119.863,-940.6"/>
<text text-anchor="middle" x="92.863" y="-918.4" font-family="Arial" font-size="14.00" fill="#000000">if</text>
</g>
<!-- 2&#45;&gt;5 -->
<g id="edge4" class="edge">
<title>2&#45;&gt;5</title>
<path fill="none" stroke="#000000" d="M92.863,-977.5551C92.863,-969.4828 92.863,-959.7764 92.863,-950.7817"/>
<polygon fill="#000000" stroke="#000000" points="96.3631,-950.6903 92.863,-940.6904 89.3631,-950.6904 96.3631,-950.6903"/>
</g>
<!-- 10 -->
<g id="node11" class="node">
<title>10</title>
<polygon fill="#ffff00" stroke="#000000" points="191.863,-940.6 137.863,-940.6 137.863,-904.6 191.863,-904.6 191.863,-940.6"/>
<text text-anchor="middle" x="164.863" y="-918.4" font-family="Arial" font-size="14.00" fill="#000000">if</text>
</g>
<!-- 3&#45;&gt;10 -->
<g id="edge11" class="edge">
<title>3&#45;&gt;10</title>
<path fill="none" stroke="#000000" d="M164.863,-977.5551C164.863,-969.4828 164.863,-959.7764 164.863,-950.7817"/>
<polygon fill="#000000" stroke="#000000" points="168.3631,-950.6903 164.863,-940.6904 161.3631,-950.6904 168.3631,-950.6903"/>
</g>
<!-- 4 -->
<g id="node5" class="node">
<title>4</title>
<polygon fill="#add8e6" stroke="#000000" points="156.533,-597.8 101.193,-597.8 101.193,-561.8 156.533,-561.8 156.533,-597.8"/>
<text text-anchor="middle" x="128.863" y="-575.6" font-family="Arial" font-size="14.00" fill="#000000">merge</text>
</g>
<!-- 15 -->
<g id="node16" class="node">
<title>15</title>
<polygon fill="#add8e6" stroke="#000000" points="155.863,-524.8 101.863,-524.8 101.863,-488.8 155.863,-488.8 155.863,-524.8"/>
<text text-anchor="middle" x="128.863" y="-502.6" font-family="Arial" font-size="14.00" fill="#000000">for</text>
</g>
<!-- 4&#45;&gt;15 -->
<g id="edge18" class="edge">
<title>4&#45;&gt;15</title>
<path fill="none" stroke="#000000" d="M128.863,-561.7551C128.863,-553.6828 128.863,-543.9764 128.863,-534.9817"/>
<polygon fill="#000000" stroke="#000000" points="132.3631,-534.8903 128.863,-524.8904 125.3631,-534.8904 132.3631,-534.8903"/>
</g>
<!-- 6 -->
<g id="node7" class="node">
<title>6</title>
<polygon fill="#add8e6" stroke="#000000" points="67.863,-851.8 13.863,-851.8 13.863,-815.8 67.863,-815.8 67.863,-851.8"/>
<text text-anchor="middle" x="40.863" y="-829.6" font-family="Arial" font-size="14.00" fill="#000000">then</text>
</g>
<!-- 5&#45;&gt;6 -->
<g id="edge5" class="edge">
<title>5&#45;&gt;6</title>
<path fill="none" stroke="#00ff00" d="M65.4563,-906.4098C58.4999,-900.9848 51.7756,-894.3188 47.4352,-886.6 43.2967,-879.2402 41.2756,-870.4047 40.3876,-862.0857"/>
<polygon fill="#00ff00" stroke="#00ff00" points="43.8741,-861.7522 39.7945,-851.9743 36.8861,-862.1621 43.8741,-861.7522"/>
<text text-anchor="middle" x="61.0769" y="-874" font-family="Times,serif" font-size="14.00" fill="#000000">True</text>
</g>
<!-- 7 -->
<g id="node8" class="node">
<title>7</title>
<polygon fill="#add8e6" stroke="#000000" points="122.863,-797.8 68.863,-797.8 68.863,-761.8 122.863,-761.8 122.863,-797.8"/>
<text text-anchor="middle" x="95.863" y="-775.6" font-family="Arial" font-size="14.00" fill="#000000">else</text>
</g>
<!-- 5&#45;&gt;7 -->
<g id="edge6" class="edge">
<title>5&#45;&gt;7</title>
<path fill="none" stroke="#ff0000" d="M93.243,-904.5143C93.7518,-880.2908 94.6604,-837.0461 95.2624,-808.3888"/>
<polygon fill="#ff0000" stroke="#ff0000" points="98.7658,-808.2613 95.4767,-798.1899 91.7673,-808.1142 98.7658,-808.2613"/>
<text text-anchor="middle" x="108.6365" y="-874" font-family="Times,serif" font-size="14.00" fill="#000000">False</text>
</g>
<!-- 9 -->
<g id="node10" class="node">
<title>9</title>
<polygon fill="#add8e6" stroke="#000000" points="67.863,-743.8 13.863,-743.8 13.863,-707.8 67.863,-707.8 67.863,-743.8"/>
<text text-anchor="middle" x="40.863" y="-721.6" font-family="Arial" font-size="14.00" fill="#000000">expr</text>
</g>
<!-- 6&#45;&gt;9 -->
<g id="edge7" class="edge">
<title>6&#45;&gt;9</title>
<path fill="none" stroke="#000000" d="M40.863,-815.4793C40.863,-798.621 40.863,-773.3651 40.863,-753.947"/>
<polygon fill="#000000" stroke="#000000" points="44.3631,-753.8501 40.863,-743.8502 37.3631,-753.8502 44.3631,-753.8501"/>
</g>
<!-- 8 -->
<g id="node9" class="node">
<title>8</title>
<polygon fill="#add8e6" stroke="#000000" points="120.533,-670.8 65.193,-670.8 65.193,-634.8 120.533,-634.8 120.533,-670.8"/>
<text text-anchor="middle" x="92.863" y="-648.6" font-family="Arial" font-size="14.00" fill="#000000">merge</text>
</g>
<!-- 7&#45;&gt;8 -->
<g id="edge9" class="edge">
<title>7&#45;&gt;8</title>
<path fill="none" stroke="#000000" d="M95.4332,-761.604C94.9364,-740.5735 94.1128,-705.7094 93.5321,-681.1236"/>
<polygon fill="#000000" stroke="#000000" points="97.0273,-680.8768 93.292,-670.9622 90.0293,-681.0421 97.0273,-680.8768"/>
</g>
<!-- 8&#45;&gt;4 -->
<g id="edge10" class="edge">
<title>8&#45;&gt;4</title>
<path fill="none" stroke="#000000" d="M101.7619,-634.7551C105.8725,-626.4196 110.8425,-616.3416 115.3979,-607.1042"/>
<polygon fill="#000000" stroke="#000000" points="118.6578,-608.4071 119.9417,-597.8904 112.3797,-605.311 118.6578,-608.4071"/>
</g>
<!-- 9&#45;&gt;8 -->
<g id="edge8" class="edge">
<title>9&#45;&gt;8</title>
<path fill="none" stroke="#000000" d="M53.7169,-707.7551C59.842,-699.1564 67.288,-688.7034 74.035,-679.2316"/>
<polygon fill="#000000" stroke="#000000" points="77.0256,-681.0659 79.9767,-670.8904 71.3241,-677.0046 77.0256,-681.0659"/>
</g>
<!-- 11 -->
<g id="node12" class="node">
<title>11</title>
<polygon fill="#add8e6" stroke="#000000" points="185.863,-851.8 131.863,-851.8 131.863,-815.8 185.863,-815.8 185.863,-851.8"/>
<text text-anchor="middle" x="158.863" y="-829.6" font-family="Arial" font-size="14.00" fill="#000000">then</text>
</g>
<!-- 10&#45;&gt;11 -->
<g id="edge12" class="edge">
<title>10&#45;&gt;11</title>
<path fill="none" stroke="#00ff00" d="M163.6198,-904.2006C162.7937,-891.975 161.6933,-875.6887 160.7589,-861.8599"/>
<polygon fill="#00ff00" stroke="#00ff00" points="164.2504,-861.6133 160.0841,-851.872 157.2663,-862.0852 164.2504,-861.6133"/>
<text text-anchor="middle" x="175.0769" y="-874" font-family="Times,serif" font-size="14.00" fill="#000000">True</text>
</g>
<!-- 12 -->
<g id="node13" class="node">
<title>12</title>
<polygon fill="#add8e6" stroke="#000000" points="240.863,-797.8 186.863,-797.8 186.863,-761.8 240.863,-761.8 240.863,-797.8"/>
<text text-anchor="middle" x="213.863" y="-775.6" font-family="Arial" font-size="14.00" fill="#000000">else</text>
</g>
<!-- 10&#45;&gt;12 -->
<g id="edge13" class="edge">
<title>10&#45;&gt;12</title>
<path fill="none" stroke="#ff0000" d="M180.8363,-904.5355C184.9658,-899.0808 189.0388,-892.8681 191.863,-886.6 203.2243,-861.3844 208.7832,-830.1668 211.4621,-808.0097"/>
<polygon fill="#ff0000" stroke="#ff0000" points="214.9569,-808.2462 212.5587,-797.9264 207.998,-807.4894 214.9569,-808.2462"/>
<text text-anchor="middle" x="212.6365" y="-874" font-family="Times,serif" font-size="14.00" fill="#000000">False</text>
</g>
<!-- 14 -->
<g id="node15" class="node">
<title>14</title>
<polygon fill="#add8e6" stroke="#000000" points="185.863,-743.8 131.863,-743.8 131.863,-707.8 185.863,-707.8 185.863,-743.8"/>
<text text-anchor="middle" x="158.863" y="-721.6" font-family="Arial" font-size="14.00" fill="#000000">expr</text>
</g>
<!-- 11&#45;&gt;14 -->
<g id="edge14" class="edge">
<title>11&#45;&gt;14</title>
<path fill="none" stroke="#000000" d="M158.863,-815.4793C158.863,-798.621 158.863,-773.3651 158.863,-753.947"/>
<polygon fill="#000000" stroke="#000000" points="162.3631,-753.8501 158.863,-743.8502 155.3631,-753.8502 162.3631,-753.8501"/>
</g>
<!-- 13 -->
<g id="node14" class="node">
<title>13</title>
<polygon fill="#add8e6" stroke="#000000" points="194.533,-670.8 139.193,-670.8 139.193,-634.8 194.533,-634.8 194.533,-670.8"/>
<text text-anchor="middle" x="166.863" y="-648.6" font-family="Arial" font-size="14.00" fill="#000000">merge</text>
</g>
<!-- 12&#45;&gt;13 -->
<g id="edge16" class="edge">
<title>12&#45;&gt;13</title>
<path fill="none" stroke="#000000" d="M210.2128,-761.7138C206.9675,-746.9479 201.6828,-725.6766 194.863,-707.8 191.3011,-698.4632 186.6181,-688.6294 182.1037,-679.9001"/>
<polygon fill="#000000" stroke="#000000" points="185.1209,-678.1196 177.3323,-670.9372 178.9419,-681.409 185.1209,-678.1196"/>
</g>
<!-- 13&#45;&gt;4 -->
<g id="edge17" class="edge">
<title>13&#45;&gt;4</title>
<path fill="none" stroke="#000000" d="M157.4697,-634.7551C153.0851,-626.3319 147.7741,-616.1292 142.9244,-606.8128"/>
<polygon fill="#000000" stroke="#000000" points="146.0019,-605.1445 138.2799,-597.8904 139.7927,-608.3766 146.0019,-605.1445"/>
</g>
<!-- 14&#45;&gt;13 -->
<g id="edge15" class="edge">
<title>14&#45;&gt;13</title>
<path fill="none" stroke="#000000" d="M160.8405,-707.7551C161.7252,-699.6828 162.7889,-689.9764 163.7746,-680.9817"/>
<polygon fill="#000000" stroke="#000000" points="167.2702,-681.2122 164.8805,-670.8904 160.3119,-680.4495 167.2702,-681.2122"/>
</g>
<!-- 16 -->
<g id="node17" class="node">
<title>16</title>
<polygon fill="#ffff00" stroke="#000000" points="128.863,-451.8 74.863,-451.8 74.863,-415.8 128.863,-415.8 128.863,-451.8"/>
<text text-anchor="middle" x="101.863" y="-429.6" font-family="Arial" font-size="14.00" fill="#000000">if</text>
</g>
<!-- 15&#45;&gt;16 -->
<g id="edge19" class="edge">
<title>15&#45;&gt;16</title>
<path fill="none" stroke="#000000" d="M122.1888,-488.7551C119.1383,-480.5074 115.4568,-470.5536 112.0698,-461.3962"/>
<polygon fill="#000000" stroke="#000000" points="115.3056,-460.0552 108.554,-451.8904 108.7403,-462.4836 115.3056,-460.0552"/>
</g>
<!-- 17 -->
<g id="node18" class="node">
<title>17</title>
<polygon fill="#add8e6" stroke="#000000" points="83.863,-363 29.863,-363 29.863,-327 83.863,-327 83.863,-363"/>
<text text-anchor="middle" x="56.863" y="-340.8" font-family="Arial" font-size="14.00" fill="#000000">then</text>
</g>
<!-- 16&#45;&gt;17 -->
<g id="edge20" class="edge">
<title>16&#45;&gt;17</title>
<path fill="none" stroke="#00ff00" d="M77.4512,-415.7729C72.0013,-410.5746 66.8363,-404.4803 63.4352,-397.8 59.6043,-390.2755 57.6712,-381.3929 56.7691,-373.0814"/>
<polygon fill="#00ff00" stroke="#00ff00" points="60.2553,-372.7553 56.1125,-363.004 53.2701,-373.2105 60.2553,-372.7553"/>
<text text-anchor="middle" x="77.0769" y="-385.2" font-family="Times,serif" font-size="14.00" fill="#000000">True</text>
</g>
<!-- 18 -->
<g id="node19" class="node">
<title>18</title>
<polygon fill="#add8e6" stroke="#000000" points="138.863,-309 84.863,-309 84.863,-273 138.863,-273 138.863,-309"/>
<text text-anchor="middle" x="111.863" y="-286.8" font-family="Arial" font-size="14.00" fill="#000000">else</text>
</g>
<!-- 16&#45;&gt;18 -->
<g id="edge21" class="edge">
<title>16&#45;&gt;18</title>
<path fill="none" stroke="#ff0000" d="M103.1295,-415.7143C104.8258,-391.4908 107.8542,-348.2461 109.861,-319.5888"/>
<polygon fill="#ff0000" stroke="#ff0000" points="113.368,-319.61 110.5752,-309.3899 106.3851,-319.121 113.368,-319.61"/>
<text text-anchor="middle" x="119.6365" y="-385.2" font-family="Times,serif" font-size="14.00" fill="#000000">False</text>
</g>
<!-- 20 -->
<g id="node21" class="node">
<title>20</title>
<polygon fill="#add8e6" stroke="#000000" points="83.863,-255 29.863,-255 29.863,-219 83.863,-219 83.863,-255"/>
<text text-anchor="middle" x="56.863" y="-232.8" font-family="Arial" font-size="14.00" fill="#000000">expr</text>
</g>
<!-- 17&#45;&gt;20 -->
<g id="edge22" class="edge">
<title>17&#45;&gt;20</title>
<path fill="none" stroke="#000000" d="M56.863,-326.6793C56.863,-309.821 56.863,-284.5651 56.863,-265.147"/>
<polygon fill="#000000" stroke="#000000" points="60.3631,-265.0501 56.863,-255.0502 53.3631,-265.0502 60.3631,-265.0501"/>
</g>
<!-- 19 -->
<g id="node20" class="node">
<title>19</title>
<polygon fill="#add8e6" stroke="#000000" points="139.533,-182 84.193,-182 84.193,-146 139.533,-146 139.533,-182"/>
<text text-anchor="middle" x="111.863" y="-159.8" font-family="Arial" font-size="14.00" fill="#000000">merge</text>
</g>
<!-- 18&#45;&gt;19 -->
<g id="edge24" class="edge">
<title>18&#45;&gt;19</title>
<path fill="none" stroke="#000000" d="M111.863,-272.804C111.863,-251.7735 111.863,-216.9094 111.863,-192.3236"/>
<polygon fill="#000000" stroke="#000000" points="115.3631,-192.1622 111.863,-182.1622 108.3631,-192.1623 115.3631,-192.1622"/>
</g>
<!-- 19&#45;&gt;15 -->
<g id="edge25" class="edge">
<title>19&#45;&gt;15</title>
<path fill="none" stroke="#000000" d="M130.9471,-182.25C143.2118,-195.9945 156.863,-216.0078 156.863,-237 156.863,-433.8 156.863,-433.8 156.863,-433.8 156.863,-449.638 151.0464,-466.2034 144.7154,-479.543"/>
<polygon fill="#000000" stroke="#000000" points="141.5073,-478.13 140.0903,-488.6297 147.7457,-481.3054 141.5073,-478.13"/>
</g>
<!-- 21 -->
<g id="node22" class="node">
<title>21</title>
<polygon fill="#d3d3d3" stroke="#000000" points="138.863,-109 84.863,-109 84.863,-73 138.863,-73 138.863,-109"/>
<text text-anchor="middle" x="111.863" y="-86.8" font-family="Arial" font-size="14.00" fill="#000000">return</text>
</g>
<!-- 19&#45;&gt;21 -->
<g id="edge26" class="edge">
<title>19&#45;&gt;21</title>
<path fill="none" stroke="#000000" d="M111.863,-145.9551C111.863,-137.8828 111.863,-128.1764 111.863,-119.1817"/>
<polygon fill="#000000" stroke="#000000" points="115.3631,-119.0903 111.863,-109.0904 108.3631,-119.0904 115.3631,-119.0903"/>
</g>
<!-- 20&#45;&gt;19 -->
<g id="edge23" class="edge">
<title>20&#45;&gt;19</title>
<path fill="none" stroke="#000000" d="M70.4585,-218.9551C77.0031,-210.2686 84.9734,-199.6898 92.167,-190.142"/>
<polygon fill="#000000" stroke="#000000" points="95.0112,-192.1834 98.2333,-182.0904 89.4203,-187.9711 95.0112,-192.1834"/>
</g>
<!-- 22 -->
<g id="node23" class="node">
<title>22</title>
<polygon fill="#ffa500" stroke="#000000" points="138.863,-36 84.863,-36 84.863,0 138.863,0 138.863,-36"/>
<text text-anchor="middle" x="111.863" y="-13.8" font-family="Arial" font-size="14.00" fill="#000000">End</text>
</g>
<!-- 21&#45;&gt;22 -->
<g id="edge27" class="edge">
<title>21&#45;&gt;22</title>
<path fill="none" stroke="#000000" d="M111.863,-72.9551C111.863,-64.8828 111.863,-55.1764 111.863,-46.1817"/>
<polygon fill="#000000" stroke="#000000" points="115.3631,-46.0903 111.863,-36.0904 108.3631,-46.0904 115.3631,-46.0903"/>
</g>
</g>
</svg>
