<?xml version="1.0" encoding="UTF-8" standalone="no"?>
<!DOCTYPE svg PUBLIC "-//W3C//DTD SVG 1.1//EN"
 "http://www.w3.org/Graphics/SVG/1.1/DTD/svg11.dtd">
<!-- Generated by graphviz version 2.40.1 (20161225.0304)
 -->
<!-- Title: CFG Pages: 1 -->
<svg width="263pt" height="220pt"
 viewBox="0.00 0.00 262.73 220.00" xmlns="http://www.w3.org/2000/svg" xmlns:xlink="http://www.w3.org/1999/xlink">
<g id="graph0" class="graph" transform="scale(1 1) rotate(0) translate(4 216)">
<title>CFG</title>
<polygon fill="#ffffff" stroke="transparent" points="-4,4 -4,-216 258.726,-216 258.726,4 -4,4"/>
<text text-anchor="middle" x="127.363" y="-190" font-family="Times,serif" font-size="20.00" fill="#000000">Complexité cyclomatique = 1</text>
<!-- 0 -->
<g id="node1" class="node">
<title>0</title>
<polygon fill="#00ff00" stroke="#000000" points="154.363,-180 100.363,-180 100.363,-144 154.363,-144 154.363,-180"/>
<text text-anchor="middle" x="127.363" y="-157.8" font-family="Arial" font-size="14.00" fill="#000000">Start</text>
</g>
<!-- 1 -->
<g id="node2" class="node">
<title>1</title>
<polygon fill="#d3d3d3" stroke="#000000" points="154.363,-108 100.363,-108 100.363,-72 154.363,-72 154.363,-108"/>
<text text-anchor="middle" x="127.363" y="-85.8" font-family="Arial" font-size="14.00" fill="#000000">return</text>
</g>
<!-- 0&#45;&gt;1 -->
<g id="edge1" class="edge">
<title>0&#45;&gt;1</title>
<path fill="none" stroke="#000000" d="M127.363,-143.8314C127.363,-136.131 127.363,-126.9743 127.363,-118.4166"/>
<polygon fill="#000000" stroke="#000000" points="130.8631,-118.4132 127.363,-108.4133 123.8631,-118.4133 130.8631,-118.4132"/>
</g>
<!-- 2 -->
<g id="node3" class="node">
<title>2</title>
<polygon fill="#ffa500" stroke="#000000" points="154.363,-36 100.363,-36 100.363,0 154.363,0 154.363,-36"/>
<text text-anchor="middle" x="127.363" y="-13.8" font-family="Arial" font-size="14.00" fill="#000000">End</text>
</g>
<!-- 1&#45;&gt;2 -->
<g id="edge2" class="edge">
<title>1&#45;&gt;2</title>
<path fill="none" stroke="#000000" d="M127.363,-71.8314C127.363,-64.131 127.363,-54.9743 127.363,-46.4166"/>
<polygon fill="#000000" stroke="#000000" points="130.8631,-46.4132 127.363,-36.4133 123.8631,-46.4133 130.8631,-46.4132"/>
</g>
</g>
</svg>
