<?xml version="1.0" encoding="UTF-8" standalone="no"?>
<!DOCTYPE svg PUBLIC "-//W3C//DTD SVG 1.1//EN"
 "http://www.w3.org/Graphics/SVG/1.1/DTD/svg11.dtd">
<!-- Generated by graphviz version 2.40.1 (20161225.0304)
 -->
<!-- Title: CFG Pages: 1 -->
<svg width="263pt" height="457pt"
 viewBox="0.00 0.00 262.73 456.80" xmlns="http://www.w3.org/2000/svg" xmlns:xlink="http://www.w3.org/1999/xlink">
<g id="graph0" class="graph" transform="scale(1 1) rotate(0) translate(4 452.8)">
<title>CFG</title>
<polygon fill="#ffffff" stroke="transparent" points="-4,4 -4,-452.8 258.726,-452.8 258.726,4 -4,4"/>
<text text-anchor="middle" x="127.363" y="-426.8" font-family="Times,serif" font-size="20.00" fill="#000000">Complexité cyclomatique = 2</text>
<!-- 0 -->
<g id="node1" class="node">
<title>0</title>
<polygon fill="#00ff00" stroke="#000000" points="155.863,-416.8 101.863,-416.8 101.863,-380.8 155.863,-380.8 155.863,-416.8"/>
<text text-anchor="middle" x="128.863" y="-394.6" font-family="Arial" font-size="14.00" fill="#000000">Start</text>
</g>
<!-- 1 -->
<g id="node2" class="node">
<title>1</title>
<polygon fill="#ffff00" stroke="#000000" points="155.863,-343.8 101.863,-343.8 101.863,-307.8 155.863,-307.8 155.863,-343.8"/>
<text text-anchor="middle" x="128.863" y="-321.6" font-family="Arial" font-size="14.00" fill="#000000">if</text>
</g>
<!-- 0&#45;&gt;1 -->
<g id="edge1" class="edge">
<title>0&#45;&gt;1</title>
<path fill="none" stroke="#000000" d="M128.863,-380.7551C128.863,-372.6828 128.863,-362.9764 128.863,-353.9817"/>
<polygon fill="#000000" stroke="#000000" points="132.3631,-353.8903 128.863,-343.8904 125.3631,-353.8904 132.3631,-353.8903"/>
</g>
<!-- 2 -->
<g id="node3" class="node">
<title>2</title>
<polygon fill="#add8e6" stroke="#000000" points="119.863,-255 65.863,-255 65.863,-219 119.863,-219 119.863,-255"/>
<text text-anchor="middle" x="92.863" y="-232.8" font-family="Arial" font-size="14.00" fill="#000000">then</text>
</g>
<!-- 1&#45;&gt;2 -->
<g id="edge2" class="edge">
<title>1&#45;&gt;2</title>
<path fill="none" stroke="#00ff00" d="M118.9409,-307.7403C116.0167,-302.0814 112.934,-295.7567 110.4352,-289.8 107.1243,-281.9073 104.0005,-273.1539 101.3308,-265.0808"/>
<polygon fill="#00ff00" stroke="#00ff00" points="104.5934,-263.7922 98.2122,-255.3347 97.9264,-265.9256 104.5934,-263.7922"/>
<text text-anchor="middle" x="123.0769" y="-277.2" font-family="Times,serif" font-size="14.00" fill="#000000">True</text>
</g>
<!-- 3 -->
<g id="node4" class="node">
<title>3</title>
<polygon fill="#add8e6" stroke="#000000" points="192.863,-255 138.863,-255 138.863,-219 192.863,-219 192.863,-255"/>
<text text-anchor="middle" x="165.863" y="-232.8" font-family="Arial" font-size="14.00" fill="#000000">else</text>
</g>
<!-- 1&#45;&gt;3 -->
<g id="edge3" class="edge">
<title>1&#45;&gt;3</title>
<path fill="none" stroke="#ff0000" d="M136.5294,-307.4006C141.6733,-295.0552 148.5426,-278.5689 154.3405,-264.6539"/>
<polygon fill="#ff0000" stroke="#ff0000" points="157.7176,-265.649 158.333,-255.072 151.256,-262.9566 157.7176,-265.649"/>
<text text-anchor="middle" x="164.6365" y="-277.2" font-family="Times,serif" font-size="14.00" fill="#000000">False</text>
</g>
<!-- 5 -->
<g id="node6" class="node">
<title>5</title>
<polygon fill="#add8e6" stroke="#000000" points="118.8148,-182 54.9112,-182 54.9112,-146 118.8148,-146 118.8148,-182"/>
<text text-anchor="middle" x="86.863" y="-159.8" font-family="Arial" font-size="14.00" fill="#000000">return x</text>
</g>
<!-- 2&#45;&gt;5 -->
<g id="edge4" class="edge">
<title>2&#45;&gt;5</title>
<path fill="none" stroke="#000000" d="M91.3799,-218.9551C90.7164,-210.8828 89.9186,-201.1764 89.1793,-192.1817"/>
<polygon fill="#000000" stroke="#000000" points="92.6574,-191.77 88.3499,-182.0904 85.6809,-192.3435 92.6574,-191.77"/>
</g>
<!-- 6 -->
<g id="node7" class="node">
<title>6</title>
<polygon fill="#add8e6" stroke="#000000" points="199.8148,-182 135.9112,-182 135.9112,-146 199.8148,-146 199.8148,-182"/>
<text text-anchor="middle" x="167.863" y="-159.8" font-family="Arial" font-size="14.00" fill="#000000">return y</text>
</g>
<!-- 3&#45;&gt;6 -->
<g id="edge6" class="edge">
<title>3&#45;&gt;6</title>
<path fill="none" stroke="#000000" d="M166.3574,-218.9551C166.5785,-210.8828 166.8445,-201.1764 167.0909,-192.1817"/>
<polygon fill="#000000" stroke="#000000" points="170.5921,-192.1825 167.3674,-182.0904 163.5947,-191.9907 170.5921,-192.1825"/>
</g>
<!-- 4 -->
<g id="node5" class="node">
<title>4</title>
<polygon fill="#add8e6" stroke="#000000" points="154.533,-109 99.193,-109 99.193,-73 154.533,-73 154.533,-109"/>
<text text-anchor="middle" x="126.863" y="-86.8" font-family="Arial" font-size="14.00" fill="#000000">merge</text>
</g>
<!-- 7 -->
<g id="node8" class="node">
<title>7</title>
<polygon fill="#ffa500" stroke="#000000" points="153.863,-36 99.863,-36 99.863,0 153.863,0 153.863,-36"/>
<text text-anchor="middle" x="126.863" y="-13.8" font-family="Arial" font-size="14.00" fill="#000000">End</text>
</g>
<!-- 4&#45;&gt;7 -->
<g id="edge8" class="edge">
<title>4&#45;&gt;7</title>
<path fill="none" stroke="#000000" d="M126.863,-72.9551C126.863,-64.8828 126.863,-55.1764 126.863,-46.1817"/>
<polygon fill="#000000" stroke="#000000" points="130.3631,-46.0903 126.863,-36.0904 123.3631,-46.0904 130.3631,-46.0903"/>
</g>
<!-- 5&#45;&gt;4 -->
<g id="edge5" class="edge">
<title>5&#45;&gt;4</title>
<path fill="none" stroke="#000000" d="M96.7506,-145.9551C101.3661,-137.5319 106.9566,-127.3292 112.0615,-118.0128"/>
<polygon fill="#000000" stroke="#000000" points="115.2145,-119.542 116.9505,-109.0904 109.0757,-116.1782 115.2145,-119.542"/>
</g>
<!-- 6&#45;&gt;4 -->
<g id="edge7" class="edge">
<title>6&#45;&gt;4</title>
<path fill="none" stroke="#000000" d="M157.7282,-145.9551C152.9973,-137.5319 147.2671,-127.3292 142.0345,-118.0128"/>
<polygon fill="#000000" stroke="#000000" points="144.972,-116.0954 137.0233,-109.0904 138.8687,-119.5233 144.972,-116.0954"/>
</g>
</g>
</svg>
