<?xml version="1.0" encoding="UTF-8" standalone="no"?>
<!DOCTYPE svg PUBLIC "-//W3C//DTD SVG 1.1//EN"
 "http://www.w3.org/Graphics/SVG/1.1/DTD/svg11.dtd">
<!-- Generated by graphviz version 2.40.1 (20161225.0304)
 -->
<!-- Title: CFG Pages: 1 -->
<svg width="1047pt" height="764pt"
 viewBox="0.00 0.00 1047.08 764.00" xmlns="http://www.w3.org/2000/svg" xmlns:xlink="http://www.w3.org/1999/xlink">
<g id="graph0" class="graph" transform="scale(1 1) rotate(0) translate(4 760)">
<title>CFG</title>
<polygon fill="#ffffff" stroke="transparent" points="-4,4 -4,-760 1043.0828,-760 1043.0828,4 -4,4"/>
<!-- 0 -->
<g id="node1" class="node">
<title>0</title>
<polygon fill="none" stroke="#000000" points="326.2507,-756 261.8321,-756 261.8321,-720 326.2507,-720 326.2507,-756"/>
<text text-anchor="middle" x="294.0414" y="-733.8" font-family="Times,serif" font-size="14.00" fill="#000000">Program</text>
</g>
<!-- 1 -->
<g id="node2" class="node">
<title>1</title>
<polygon fill="none" stroke="#000000" points="330.0218,-684 258.061,-684 258.061,-648 330.0218,-648 330.0218,-684"/>
<text text-anchor="middle" x="294.0414" y="-661.8" font-family="Times,serif" font-size="14.00" fill="#000000">undefined</text>
</g>
<!-- 0&#45;&gt;1 -->
<g id="edge1" class="edge">
<title>0&#45;&gt;1</title>
<path fill="none" stroke="#000000" d="M294.0414,-719.8314C294.0414,-712.131 294.0414,-702.9743 294.0414,-694.4166"/>
<polygon fill="#000000" stroke="#000000" points="297.5415,-694.4132 294.0414,-684.4133 290.5415,-694.4133 297.5415,-694.4132"/>
</g>
<!-- 2 -->
<g id="node3" class="node">
<title>2</title>
<polygon fill="none" stroke="#000000" points="359.6172,-612 228.4656,-612 228.4656,-576 359.6172,-576 359.6172,-612"/>
<text text-anchor="middle" x="294.0414" y="-589.8" font-family="Times,serif" font-size="14.00" fill="#000000">FunctionDeclaration</text>
</g>
<!-- 1&#45;&gt;2 -->
<g id="edge2" class="edge">
<title>1&#45;&gt;2</title>
<path fill="none" stroke="#000000" d="M294.0414,-647.8314C294.0414,-640.131 294.0414,-630.9743 294.0414,-622.4166"/>
<polygon fill="#000000" stroke="#000000" points="297.5415,-622.4132 294.0414,-612.4133 290.5415,-622.4133 297.5415,-622.4132"/>
</g>
<!-- 3 -->
<g id="node4" class="node">
<title>3</title>
<polygon fill="none" stroke="#000000" points="240.1243,-540 171.9585,-540 171.9585,-504 240.1243,-504 240.1243,-540"/>
<text text-anchor="middle" x="206.0414" y="-517.8" font-family="Times,serif" font-size="14.00" fill="#000000">Identifier</text>
</g>
<!-- 2&#45;&gt;3 -->
<g id="edge3" class="edge">
<title>2&#45;&gt;3</title>
<path fill="none" stroke="#000000" d="M271.8353,-575.8314C260.9964,-566.9632 247.797,-556.1637 236.0736,-546.5718"/>
<polygon fill="#000000" stroke="#000000" points="238.1964,-543.7864 228.2404,-540.1628 233.7637,-549.2041 238.1964,-543.7864"/>
</g>
<!-- 4 -->
<g id="node5" class="node">
<title>4</title>
<polygon fill="none" stroke="#000000" points="330.0218,-540 258.061,-540 258.061,-504 330.0218,-504 330.0218,-540"/>
<text text-anchor="middle" x="294.0414" y="-517.8" font-family="Times,serif" font-size="14.00" fill="#000000">undefined</text>
</g>
<!-- 2&#45;&gt;4 -->
<g id="edge4" class="edge">
<title>2&#45;&gt;4</title>
<path fill="none" stroke="#000000" d="M294.0414,-575.8314C294.0414,-568.131 294.0414,-558.9743 294.0414,-550.4166"/>
<polygon fill="#000000" stroke="#000000" points="297.5415,-550.4132 294.0414,-540.4133 290.5415,-550.4133 297.5415,-550.4132"/>
</g>
<!-- 8 -->
<g id="node9" class="node">
<title>8</title>
<polygon fill="none" stroke="#000000" points="621.9729,-540 516.1099,-540 516.1099,-504 621.9729,-504 621.9729,-540"/>
<text text-anchor="middle" x="569.0414" y="-517.8" font-family="Times,serif" font-size="14.00" fill="#000000">BlockStatement</text>
</g>
<!-- 2&#45;&gt;8 -->
<g id="edge8" class="edge">
<title>2&#45;&gt;8</title>
<path fill="none" stroke="#000000" d="M359.9108,-576.7542C404.283,-565.1367 462.4631,-549.9041 506.19,-538.4556"/>
<polygon fill="#000000" stroke="#000000" points="507.3444,-541.7714 516.1318,-535.8527 505.5714,-534.9997 507.3444,-541.7714"/>
</g>
<!-- 5 -->
<g id="node6" class="node">
<title>5</title>
<polygon fill="none" stroke="#000000" points="206.1243,-468 137.9585,-468 137.9585,-432 206.1243,-432 206.1243,-468"/>
<text text-anchor="middle" x="172.0414" y="-445.8" font-family="Times,serif" font-size="14.00" fill="#000000">Identifier</text>
</g>
<!-- 4&#45;&gt;5 -->
<g id="edge5" class="edge">
<title>4&#45;&gt;5</title>
<path fill="none" stroke="#000000" d="M263.2556,-503.8314C247.6511,-494.6221 228.5174,-483.3301 211.8111,-473.4706"/>
<polygon fill="#000000" stroke="#000000" points="213.2083,-470.2312 202.8173,-468.1628 209.6505,-476.2596 213.2083,-470.2312"/>
</g>
<!-- 6 -->
<g id="node7" class="node">
<title>6</title>
<polygon fill="none" stroke="#000000" points="292.1243,-468 223.9585,-468 223.9585,-432 292.1243,-432 292.1243,-468"/>
<text text-anchor="middle" x="258.0414" y="-445.8" font-family="Times,serif" font-size="14.00" fill="#000000">Identifier</text>
</g>
<!-- 4&#45;&gt;6 -->
<g id="edge6" class="edge">
<title>4&#45;&gt;6</title>
<path fill="none" stroke="#000000" d="M284.9571,-503.8314C280.9799,-495.8771 276.2259,-486.369 271.8275,-477.5723"/>
<polygon fill="#000000" stroke="#000000" points="274.8507,-475.7923 267.248,-468.4133 268.5897,-478.9228 274.8507,-475.7923"/>
</g>
<!-- 7 -->
<g id="node8" class="node">
<title>7</title>
<polygon fill="none" stroke="#000000" points="378.1243,-468 309.9585,-468 309.9585,-432 378.1243,-432 378.1243,-468"/>
<text text-anchor="middle" x="344.0414" y="-445.8" font-family="Times,serif" font-size="14.00" fill="#000000">Identifier</text>
</g>
<!-- 4&#45;&gt;7 -->
<g id="edge7" class="edge">
<title>4&#45;&gt;7</title>
<path fill="none" stroke="#000000" d="M306.6585,-503.8314C312.3586,-495.6232 319.2077,-485.7606 325.4773,-476.7323"/>
<polygon fill="#000000" stroke="#000000" points="328.4252,-478.6234 331.2544,-468.4133 322.6756,-474.6306 328.4252,-478.6234"/>
</g>
<!-- 9 -->
<g id="node10" class="node">
<title>9</title>
<polygon fill="none" stroke="#000000" points="477.852,-468 396.2308,-468 396.2308,-432 477.852,-432 477.852,-468"/>
<text text-anchor="middle" x="437.0414" y="-445.8" font-family="Times,serif" font-size="14.00" fill="#000000">IfStatement</text>
</g>
<!-- 8&#45;&gt;9 -->
<g id="edge9" class="edge">
<title>8&#45;&gt;9</title>
<path fill="none" stroke="#000000" d="M535.7322,-503.8314C518.6141,-494.4942 497.5708,-483.016 479.3192,-473.0606"/>
<polygon fill="#000000" stroke="#000000" points="480.7949,-469.8788 470.3399,-468.1628 477.4429,-476.024 480.7949,-469.8788"/>
</g>
<!-- 28 -->
<g id="node29" class="node">
<title>28</title>
<polygon fill="none" stroke="#000000" points="680.9744,-468 589.1084,-468 589.1084,-432 680.9744,-432 680.9744,-468"/>
<text text-anchor="middle" x="635.0414" y="-445.8" font-family="Times,serif" font-size="14.00" fill="#000000">ForStatement</text>
</g>
<!-- 8&#45;&gt;28 -->
<g id="edge28" class="edge">
<title>8&#45;&gt;28</title>
<path fill="none" stroke="#000000" d="M585.696,-503.8314C593.4528,-495.3694 602.8216,-485.1489 611.3024,-475.8971"/>
<polygon fill="#000000" stroke="#000000" points="613.9853,-478.1499 618.1626,-468.4133 608.8252,-473.4198 613.9853,-478.1499"/>
</g>
<!-- 48 -->
<g id="node49" class="node">
<title>48</title>
<polygon fill="none" stroke="#000000" points="934.1326,-468 823.9502,-468 823.9502,-432 934.1326,-432 934.1326,-468"/>
<text text-anchor="middle" x="879.0414" y="-445.8" font-family="Times,serif" font-size="14.00" fill="#000000">ReturnStatement</text>
</g>
<!-- 8&#45;&gt;48 -->
<g id="edge48" class="edge">
<title>8&#45;&gt;48</title>
<path fill="none" stroke="#000000" d="M621.9801,-509.7046C675.0803,-497.3716 756.9484,-478.3571 813.9792,-465.1112"/>
<polygon fill="#000000" stroke="#000000" points="815.0227,-468.4621 823.9716,-462.7904 813.439,-461.6436 815.0227,-468.4621"/>
</g>
<!-- 10 -->
<g id="node11" class="node">
<title>10</title>
<polygon fill="none" stroke="#000000" points="312.9729,-396 207.1099,-396 207.1099,-360 312.9729,-360 312.9729,-396"/>
<text text-anchor="middle" x="260.0414" y="-373.8" font-family="Times,serif" font-size="14.00" fill="#000000">BlockStatement</text>
</g>
<!-- 9&#45;&gt;10 -->
<g id="edge10" class="edge">
<title>9&#45;&gt;10</title>
<path fill="none" stroke="#000000" d="M395.9892,-433.3008C371.6134,-423.3852 340.4194,-410.6961 314.0619,-399.9745"/>
<polygon fill="#000000" stroke="#000000" points="315.1735,-396.6482 304.5917,-396.1222 312.5358,-403.1322 315.1735,-396.6482"/>
</g>
<!-- 19 -->
<g id="node20" class="node">
<title>19</title>
<polygon fill="none" stroke="#000000" points="411.852,-396 330.2308,-396 330.2308,-360 411.852,-360 411.852,-396"/>
<text text-anchor="middle" x="371.0414" y="-373.8" font-family="Times,serif" font-size="14.00" fill="#000000">IfStatement</text>
</g>
<!-- 9&#45;&gt;19 -->
<g id="edge19" class="edge">
<title>9&#45;&gt;19</title>
<path fill="none" stroke="#000000" d="M420.3868,-431.8314C412.63,-423.3694 403.2612,-413.1489 394.7804,-403.8971"/>
<polygon fill="#000000" stroke="#000000" points="397.2576,-401.4198 387.9202,-396.4133 392.0975,-406.1499 397.2576,-401.4198"/>
</g>
<!-- 11 -->
<g id="node12" class="node">
<title>11</title>
<polygon fill="none" stroke="#000000" points="280.852,-324 199.2308,-324 199.2308,-288 280.852,-288 280.852,-324"/>
<text text-anchor="middle" x="240.0414" y="-301.8" font-family="Times,serif" font-size="14.00" fill="#000000">IfStatement</text>
</g>
<!-- 10&#45;&gt;11 -->
<g id="edge11" class="edge">
<title>10&#45;&gt;11</title>
<path fill="none" stroke="#000000" d="M254.9946,-359.8314C252.832,-352.0463 250.2561,-342.7729 247.8566,-334.1347"/>
<polygon fill="#000000" stroke="#000000" points="251.205,-333.1117 245.1562,-324.4133 244.4604,-334.9852 251.205,-333.1117"/>
</g>
<!-- 12 -->
<g id="node13" class="node">
<title>12</title>
<polygon fill="none" stroke="#000000" points="286.2379,-252 151.8449,-252 151.8449,-216 286.2379,-216 286.2379,-252"/>
<text text-anchor="middle" x="219.0414" y="-229.8" font-family="Times,serif" font-size="14.00" fill="#000000">ExpressionStatement</text>
</g>
<!-- 11&#45;&gt;12 -->
<g id="edge12" class="edge">
<title>11&#45;&gt;12</title>
<path fill="none" stroke="#000000" d="M234.7422,-287.8314C232.4716,-280.0463 229.7668,-270.7729 227.2474,-262.1347"/>
<polygon fill="#000000" stroke="#000000" points="230.572,-261.0332 224.4119,-252.4133 223.852,-262.9933 230.572,-261.0332"/>
</g>
<!-- 13 -->
<g id="node14" class="node">
<title>13</title>
<polygon fill="none" stroke="#000000" points="269.5824,-180 168.5004,-180 168.5004,-144 269.5824,-144 269.5824,-180"/>
<text text-anchor="middle" x="219.0414" y="-157.8" font-family="Times,serif" font-size="14.00" fill="#000000">CallExpression</text>
</g>
<!-- 12&#45;&gt;13 -->
<g id="edge13" class="edge">
<title>12&#45;&gt;13</title>
<path fill="none" stroke="#000000" d="M219.0414,-215.8314C219.0414,-208.131 219.0414,-198.9743 219.0414,-190.4166"/>
<polygon fill="#000000" stroke="#000000" points="222.5415,-190.4132 219.0414,-180.4133 215.5415,-190.4133 222.5415,-190.4132"/>
</g>
<!-- 14 -->
<g id="node15" class="node">
<title>14</title>
<polygon fill="none" stroke="#000000" points="166.6745,-108 41.4083,-108 41.4083,-72 166.6745,-72 166.6745,-108"/>
<text text-anchor="middle" x="104.0414" y="-85.8" font-family="Times,serif" font-size="14.00" fill="#000000">MemberExpression</text>
</g>
<!-- 13&#45;&gt;14 -->
<g id="edge14" class="edge">
<title>13&#45;&gt;14</title>
<path fill="none" stroke="#000000" d="M190.022,-143.8314C175.3128,-134.6221 157.277,-123.3301 141.5292,-113.4706"/>
<polygon fill="#000000" stroke="#000000" points="143.3847,-110.5029 133.0515,-108.1628 139.67,-116.436 143.3847,-110.5029"/>
</g>
<!-- 17 -->
<g id="node18" class="node">
<title>17</title>
<polygon fill="none" stroke="#000000" points="257.0218,-108 185.061,-108 185.061,-72 257.0218,-72 257.0218,-108"/>
<text text-anchor="middle" x="221.0414" y="-85.8" font-family="Times,serif" font-size="14.00" fill="#000000">undefined</text>
</g>
<!-- 13&#45;&gt;17 -->
<g id="edge17" class="edge">
<title>13&#45;&gt;17</title>
<path fill="none" stroke="#000000" d="M219.5461,-143.8314C219.76,-136.131 220.0143,-126.9743 220.252,-118.4166"/>
<polygon fill="#000000" stroke="#000000" points="223.7508,-118.5066 220.5299,-108.4133 216.7535,-118.3122 223.7508,-118.5066"/>
</g>
<!-- 15 -->
<g id="node16" class="node">
<title>15</title>
<polygon fill="none" stroke="#000000" points="68.1243,-36 -.0415,-36 -.0415,0 68.1243,0 68.1243,-36"/>
<text text-anchor="middle" x="34.0414" y="-13.8" font-family="Times,serif" font-size="14.00" fill="#000000">Identifier</text>
</g>
<!-- 14&#45;&gt;15 -->
<g id="edge15" class="edge">
<title>14&#45;&gt;15</title>
<path fill="none" stroke="#000000" d="M86.3774,-71.8314C78.0682,-63.2848 68.015,-52.9443 58.9496,-43.6198"/>
<polygon fill="#000000" stroke="#000000" points="61.4235,-41.1435 51.9432,-36.4133 56.4045,-46.023 61.4235,-41.1435"/>
</g>
<!-- 16 -->
<g id="node17" class="node">
<title>16</title>
<polygon fill="none" stroke="#000000" points="154.1243,-36 85.9585,-36 85.9585,0 154.1243,0 154.1243,-36"/>
<text text-anchor="middle" x="120.0414" y="-13.8" font-family="Times,serif" font-size="14.00" fill="#000000">Identifier</text>
</g>
<!-- 14&#45;&gt;16 -->
<g id="edge16" class="edge">
<title>14&#45;&gt;16</title>
<path fill="none" stroke="#000000" d="M108.0789,-71.8314C109.7901,-64.131 111.8249,-54.9743 113.7266,-46.4166"/>
<polygon fill="#000000" stroke="#000000" points="117.1968,-46.9344 115.9496,-36.4133 110.3635,-45.4159 117.1968,-46.9344"/>
</g>
<!-- 18 -->
<g id="node19" class="node">
<title>18</title>
<polygon fill="none" stroke="#000000" points="255.1243,-36 186.9585,-36 186.9585,0 255.1243,0 255.1243,-36"/>
<text text-anchor="middle" x="221.0414" y="-13.8" font-family="Times,serif" font-size="14.00" fill="#000000">Identifier</text>
</g>
<!-- 17&#45;&gt;18 -->
<g id="edge18" class="edge">
<title>17&#45;&gt;18</title>
<path fill="none" stroke="#000000" d="M221.0414,-71.8314C221.0414,-64.131 221.0414,-54.9743 221.0414,-46.4166"/>
<polygon fill="#000000" stroke="#000000" points="224.5415,-46.4132 221.0414,-36.4133 217.5415,-46.4133 224.5415,-46.4132"/>
</g>
<!-- 20 -->
<g id="node21" class="node">
<title>20</title>
<polygon fill="none" stroke="#000000" points="423.9729,-324 318.1099,-324 318.1099,-288 423.9729,-288 423.9729,-324"/>
<text text-anchor="middle" x="371.0414" y="-301.8" font-family="Times,serif" font-size="14.00" fill="#000000">BlockStatement</text>
</g>
<!-- 19&#45;&gt;20 -->
<g id="edge20" class="edge">
<title>19&#45;&gt;20</title>
<path fill="none" stroke="#000000" d="M371.0414,-359.8314C371.0414,-352.131 371.0414,-342.9743 371.0414,-334.4166"/>
<polygon fill="#000000" stroke="#000000" points="374.5415,-334.4132 371.0414,-324.4133 367.5415,-334.4133 374.5415,-334.4132"/>
</g>
<!-- 21 -->
<g id="node22" class="node">
<title>21</title>
<polygon fill="none" stroke="#000000" points="438.2379,-252 303.8449,-252 303.8449,-216 438.2379,-216 438.2379,-252"/>
<text text-anchor="middle" x="371.0414" y="-229.8" font-family="Times,serif" font-size="14.00" fill="#000000">ExpressionStatement</text>
</g>
<!-- 20&#45;&gt;21 -->
<g id="edge21" class="edge">
<title>20&#45;&gt;21</title>
<path fill="none" stroke="#000000" d="M371.0414,-287.8314C371.0414,-280.131 371.0414,-270.9743 371.0414,-262.4166"/>
<polygon fill="#000000" stroke="#000000" points="374.5415,-262.4132 371.0414,-252.4133 367.5415,-262.4133 374.5415,-262.4132"/>
</g>
<!-- 22 -->
<g id="node23" class="node">
<title>22</title>
<polygon fill="none" stroke="#000000" points="421.5824,-180 320.5004,-180 320.5004,-144 421.5824,-144 421.5824,-180"/>
<text text-anchor="middle" x="371.0414" y="-157.8" font-family="Times,serif" font-size="14.00" fill="#000000">CallExpression</text>
</g>
<!-- 21&#45;&gt;22 -->
<g id="edge22" class="edge">
<title>21&#45;&gt;22</title>
<path fill="none" stroke="#000000" d="M371.0414,-215.8314C371.0414,-208.131 371.0414,-198.9743 371.0414,-190.4166"/>
<polygon fill="#000000" stroke="#000000" points="374.5415,-190.4132 371.0414,-180.4133 367.5415,-190.4133 374.5415,-190.4132"/>
</g>
<!-- 23 -->
<g id="node24" class="node">
<title>23</title>
<polygon fill="none" stroke="#000000" points="432.6745,-108 307.4083,-108 307.4083,-72 432.6745,-72 432.6745,-108"/>
<text text-anchor="middle" x="370.0414" y="-85.8" font-family="Times,serif" font-size="14.00" fill="#000000">MemberExpression</text>
</g>
<!-- 22&#45;&gt;23 -->
<g id="edge23" class="edge">
<title>22&#45;&gt;23</title>
<path fill="none" stroke="#000000" d="M370.7891,-143.8314C370.6821,-136.131 370.5549,-126.9743 370.4361,-118.4166"/>
<polygon fill="#000000" stroke="#000000" points="373.9358,-118.3637 370.2971,-108.4133 366.9365,-118.4609 373.9358,-118.3637"/>
</g>
<!-- 26 -->
<g id="node27" class="node">
<title>26</title>
<polygon fill="none" stroke="#000000" points="523.0218,-108 451.061,-108 451.061,-72 523.0218,-72 523.0218,-108"/>
<text text-anchor="middle" x="487.0414" y="-85.8" font-family="Times,serif" font-size="14.00" fill="#000000">undefined</text>
</g>
<!-- 22&#45;&gt;26 -->
<g id="edge26" class="edge">
<title>22&#45;&gt;26</title>
<path fill="none" stroke="#000000" d="M400.3131,-143.8314C415.1502,-134.6221 433.3429,-123.3301 449.2276,-113.4706"/>
<polygon fill="#000000" stroke="#000000" points="451.1284,-116.4102 457.7791,-108.1628 447.4369,-110.4628 451.1284,-116.4102"/>
</g>
<!-- 24 -->
<g id="node25" class="node">
<title>24</title>
<polygon fill="none" stroke="#000000" points="346.1243,-36 277.9585,-36 277.9585,0 346.1243,0 346.1243,-36"/>
<text text-anchor="middle" x="312.0414" y="-13.8" font-family="Times,serif" font-size="14.00" fill="#000000">Identifier</text>
</g>
<!-- 23&#45;&gt;24 -->
<g id="edge24" class="edge">
<title>23&#45;&gt;24</title>
<path fill="none" stroke="#000000" d="M355.4056,-71.8314C348.7253,-63.5386 340.6846,-53.557 333.351,-44.4533"/>
<polygon fill="#000000" stroke="#000000" points="335.8733,-42.0052 326.8743,-36.4133 330.422,-46.3965 335.8733,-42.0052"/>
</g>
<!-- 25 -->
<g id="node26" class="node">
<title>25</title>
<polygon fill="none" stroke="#000000" points="432.1243,-36 363.9585,-36 363.9585,0 432.1243,0 432.1243,-36"/>
<text text-anchor="middle" x="398.0414" y="-13.8" font-family="Times,serif" font-size="14.00" fill="#000000">Identifier</text>
</g>
<!-- 23&#45;&gt;25 -->
<g id="edge25" class="edge">
<title>23&#45;&gt;25</title>
<path fill="none" stroke="#000000" d="M377.107,-71.8314C380.1674,-63.9617 383.8193,-54.5712 387.2096,-45.8533"/>
<polygon fill="#000000" stroke="#000000" points="390.5182,-47.0019 390.8807,-36.4133 383.9941,-44.4647 390.5182,-47.0019"/>
</g>
<!-- 27 -->
<g id="node28" class="node">
<title>27</title>
<polygon fill="none" stroke="#000000" points="521.1243,-36 452.9585,-36 452.9585,0 521.1243,0 521.1243,-36"/>
<text text-anchor="middle" x="487.0414" y="-13.8" font-family="Times,serif" font-size="14.00" fill="#000000">Identifier</text>
</g>
<!-- 26&#45;&gt;27 -->
<g id="edge27" class="edge">
<title>26&#45;&gt;27</title>
<path fill="none" stroke="#000000" d="M487.0414,-71.8314C487.0414,-64.131 487.0414,-54.9743 487.0414,-46.4166"/>
<polygon fill="#000000" stroke="#000000" points="490.5415,-46.4132 487.0414,-36.4133 483.5415,-46.4133 490.5415,-46.4132"/>
</g>
<!-- 29 -->
<g id="node30" class="node">
<title>29</title>
<polygon fill="none" stroke="#000000" points="559.0319,-396 429.0509,-396 429.0509,-360 559.0319,-360 559.0319,-396"/>
<text text-anchor="middle" x="494.0414" y="-373.8" font-family="Times,serif" font-size="14.00" fill="#000000">VariableDeclaration</text>
</g>
<!-- 28&#45;&gt;29 -->
<g id="edge29" class="edge">
<title>28&#45;&gt;29</title>
<path fill="none" stroke="#000000" d="M599.4611,-431.8314C581.0089,-422.4089 558.2869,-410.8062 538.6684,-400.7883"/>
<polygon fill="#000000" stroke="#000000" points="540.1081,-397.5935 529.6103,-396.1628 536.9246,-403.8278 540.1081,-397.5935"/>
</g>
<!-- 34 -->
<g id="node35" class="node">
<title>34</title>
<polygon fill="none" stroke="#000000" points="693.3518,-396 576.731,-396 576.731,-360 693.3518,-360 693.3518,-396"/>
<text text-anchor="middle" x="635.0414" y="-373.8" font-family="Times,serif" font-size="14.00" fill="#000000">BinaryExpression</text>
</g>
<!-- 28&#45;&gt;34 -->
<g id="edge34" class="edge">
<title>28&#45;&gt;34</title>
<path fill="none" stroke="#000000" d="M635.0414,-431.8314C635.0414,-424.131 635.0414,-414.9743 635.0414,-406.4166"/>
<polygon fill="#000000" stroke="#000000" points="638.5415,-406.4132 635.0414,-396.4133 631.5415,-406.4133 638.5415,-406.4132"/>
</g>
<!-- 37 -->
<g id="node38" class="node">
<title>37</title>
<polygon fill="none" stroke="#000000" points="829.176,-396 710.9068,-396 710.9068,-360 829.176,-360 829.176,-396"/>
<text text-anchor="middle" x="770.0414" y="-373.8" font-family="Times,serif" font-size="14.00" fill="#000000">UpdateExpression</text>
</g>
<!-- 28&#45;&gt;37 -->
<g id="edge37" class="edge">
<title>28&#45;&gt;37</title>
<path fill="none" stroke="#000000" d="M669.1076,-431.8314C686.6947,-422.4516 708.333,-410.9112 727.0582,-400.9244"/>
<polygon fill="#000000" stroke="#000000" points="728.8096,-403.957 735.9861,-396.1628 725.5155,-397.7805 728.8096,-403.957"/>
</g>
<!-- 39 -->
<g id="node40" class="node">
<title>39</title>
<polygon fill="none" stroke="#000000" points="952.9729,-396 847.1099,-396 847.1099,-360 952.9729,-360 952.9729,-396"/>
<text text-anchor="middle" x="900.0414" y="-373.8" font-family="Times,serif" font-size="14.00" fill="#000000">BlockStatement</text>
</g>
<!-- 28&#45;&gt;39 -->
<g id="edge39" class="edge">
<title>28&#45;&gt;39</title>
<path fill="none" stroke="#000000" d="M681.0768,-438.0705C720.1014,-427.8864 777.8025,-412.6619 837.3414,-396.1661"/>
<polygon fill="#000000" stroke="#000000" points="838.6009,-399.4489 847.2993,-393.4 836.7273,-392.7043 838.6009,-399.4489"/>
</g>
<!-- 30 -->
<g id="node31" class="node">
<title>30</title>
<polygon fill="none" stroke="#000000" points="537.0218,-324 465.061,-324 465.061,-288 537.0218,-288 537.0218,-324"/>
<text text-anchor="middle" x="501.0414" y="-301.8" font-family="Times,serif" font-size="14.00" fill="#000000">undefined</text>
</g>
<!-- 29&#45;&gt;30 -->
<g id="edge30" class="edge">
<title>29&#45;&gt;30</title>
<path fill="none" stroke="#000000" d="M495.8078,-359.8314C496.5564,-352.131 497.4467,-342.9743 498.2787,-334.4166"/>
<polygon fill="#000000" stroke="#000000" points="501.767,-334.7051 499.2512,-324.4133 494.7999,-334.0276 501.767,-334.7051"/>
</g>
<!-- 31 -->
<g id="node32" class="node">
<title>31</title>
<polygon fill="none" stroke="#000000" points="579.8013,-252 456.2815,-252 456.2815,-216 579.8013,-216 579.8013,-252"/>
<text text-anchor="middle" x="518.0414" y="-229.8" font-family="Times,serif" font-size="14.00" fill="#000000">VariableDeclarator</text>
</g>
<!-- 30&#45;&gt;31 -->
<g id="edge31" class="edge">
<title>30&#45;&gt;31</title>
<path fill="none" stroke="#000000" d="M505.3312,-287.8314C507.1494,-280.131 509.3113,-270.9743 511.3319,-262.4166"/>
<polygon fill="#000000" stroke="#000000" points="514.8022,-262.95 513.6938,-252.4133 507.9895,-261.3414 514.8022,-262.95"/>
</g>
<!-- 32 -->
<g id="node33" class="node">
<title>32</title>
<polygon fill="none" stroke="#000000" points="530.1243,-180 461.9585,-180 461.9585,-144 530.1243,-144 530.1243,-180"/>
<text text-anchor="middle" x="496.0414" y="-157.8" font-family="Times,serif" font-size="14.00" fill="#000000">Identifier</text>
</g>
<!-- 31&#45;&gt;32 -->
<g id="edge32" class="edge">
<title>31&#45;&gt;32</title>
<path fill="none" stroke="#000000" d="M512.4899,-215.8314C510.1111,-208.0463 507.2776,-198.7729 504.6381,-190.1347"/>
<polygon fill="#000000" stroke="#000000" points="507.9372,-188.954 501.6677,-180.4133 501.2427,-190.9996 507.9372,-188.954"/>
</g>
<!-- 33 -->
<g id="node34" class="node">
<title>33</title>
<polygon fill="none" stroke="#000000" points="602.0414,-180 548.0414,-180 548.0414,-144 602.0414,-144 602.0414,-180"/>
<text text-anchor="middle" x="575.0414" y="-157.8" font-family="Times,serif" font-size="14.00" fill="#000000">Literal</text>
</g>
<!-- 31&#45;&gt;33 -->
<g id="edge33" class="edge">
<title>31&#45;&gt;33</title>
<path fill="none" stroke="#000000" d="M532.4249,-215.8314C538.99,-207.5386 546.8921,-197.557 554.0992,-188.4533"/>
<polygon fill="#000000" stroke="#000000" points="557.0013,-190.4262 560.4642,-180.4133 551.513,-186.0813 557.0013,-190.4262"/>
</g>
<!-- 35 -->
<g id="node36" class="node">
<title>35</title>
<polygon fill="none" stroke="#000000" points="631.1243,-324 562.9585,-324 562.9585,-288 631.1243,-288 631.1243,-324"/>
<text text-anchor="middle" x="597.0414" y="-301.8" font-family="Times,serif" font-size="14.00" fill="#000000">Identifier</text>
</g>
<!-- 34&#45;&gt;35 -->
<g id="edge35" class="edge">
<title>34&#45;&gt;35</title>
<path fill="none" stroke="#000000" d="M625.4524,-359.8314C621.2097,-351.7925 616.1293,-342.1666 611.4454,-333.2918"/>
<polygon fill="#000000" stroke="#000000" points="614.5225,-331.6235 606.7595,-324.4133 608.3318,-334.8908 614.5225,-331.6235"/>
</g>
<!-- 36 -->
<g id="node37" class="node">
<title>36</title>
<polygon fill="none" stroke="#000000" points="703.0414,-324 649.0414,-324 649.0414,-288 703.0414,-288 703.0414,-324"/>
<text text-anchor="middle" x="676.0414" y="-301.8" font-family="Times,serif" font-size="14.00" fill="#000000">Literal</text>
</g>
<!-- 34&#45;&gt;36 -->
<g id="edge36" class="edge">
<title>34&#45;&gt;36</title>
<path fill="none" stroke="#000000" d="M645.3874,-359.8314C649.9651,-351.7925 655.4466,-342.1666 660.5002,-333.2918"/>
<polygon fill="#000000" stroke="#000000" points="663.6491,-334.8351 665.5561,-324.4133 657.5662,-331.3712 663.6491,-334.8351"/>
</g>
<!-- 38 -->
<g id="node39" class="node">
<title>38</title>
<polygon fill="none" stroke="#000000" points="804.1243,-324 735.9585,-324 735.9585,-288 804.1243,-288 804.1243,-324"/>
<text text-anchor="middle" x="770.0414" y="-301.8" font-family="Times,serif" font-size="14.00" fill="#000000">Identifier</text>
</g>
<!-- 37&#45;&gt;38 -->
<g id="edge38" class="edge">
<title>37&#45;&gt;38</title>
<path fill="none" stroke="#000000" d="M770.0414,-359.8314C770.0414,-352.131 770.0414,-342.9743 770.0414,-334.4166"/>
<polygon fill="#000000" stroke="#000000" points="773.5415,-334.4132 770.0414,-324.4133 766.5415,-334.4133 773.5415,-334.4132"/>
</g>
<!-- 40 -->
<g id="node41" class="node">
<title>40</title>
<polygon fill="none" stroke="#000000" points="940.852,-324 859.2308,-324 859.2308,-288 940.852,-288 940.852,-324"/>
<text text-anchor="middle" x="900.0414" y="-301.8" font-family="Times,serif" font-size="14.00" fill="#000000">IfStatement</text>
</g>
<!-- 39&#45;&gt;40 -->
<g id="edge40" class="edge">
<title>39&#45;&gt;40</title>
<path fill="none" stroke="#000000" d="M900.0414,-359.8314C900.0414,-352.131 900.0414,-342.9743 900.0414,-334.4166"/>
<polygon fill="#000000" stroke="#000000" points="903.5415,-334.4132 900.0414,-324.4133 896.5415,-334.4133 903.5415,-334.4132"/>
</g>
<!-- 41 -->
<g id="node42" class="node">
<title>41</title>
<polygon fill="none" stroke="#000000" points="967.2379,-252 832.8449,-252 832.8449,-216 967.2379,-216 967.2379,-252"/>
<text text-anchor="middle" x="900.0414" y="-229.8" font-family="Times,serif" font-size="14.00" fill="#000000">ExpressionStatement</text>
</g>
<!-- 40&#45;&gt;41 -->
<g id="edge41" class="edge">
<title>40&#45;&gt;41</title>
<path fill="none" stroke="#000000" d="M900.0414,-287.8314C900.0414,-280.131 900.0414,-270.9743 900.0414,-262.4166"/>
<polygon fill="#000000" stroke="#000000" points="903.5415,-262.4132 900.0414,-252.4133 896.5415,-262.4133 903.5415,-262.4132"/>
</g>
<!-- 42 -->
<g id="node43" class="node">
<title>42</title>
<polygon fill="none" stroke="#000000" points="950.5824,-180 849.5004,-180 849.5004,-144 950.5824,-144 950.5824,-180"/>
<text text-anchor="middle" x="900.0414" y="-157.8" font-family="Times,serif" font-size="14.00" fill="#000000">CallExpression</text>
</g>
<!-- 41&#45;&gt;42 -->
<g id="edge42" class="edge">
<title>41&#45;&gt;42</title>
<path fill="none" stroke="#000000" d="M900.0414,-215.8314C900.0414,-208.131 900.0414,-198.9743 900.0414,-190.4166"/>
<polygon fill="#000000" stroke="#000000" points="903.5415,-190.4132 900.0414,-180.4133 896.5415,-190.4133 903.5415,-190.4132"/>
</g>
<!-- 43 -->
<g id="node44" class="node">
<title>43</title>
<polygon fill="none" stroke="#000000" points="904.6745,-108 779.4083,-108 779.4083,-72 904.6745,-72 904.6745,-108"/>
<text text-anchor="middle" x="842.0414" y="-85.8" font-family="Times,serif" font-size="14.00" fill="#000000">MemberExpression</text>
</g>
<!-- 42&#45;&gt;43 -->
<g id="edge43" class="edge">
<title>42&#45;&gt;43</title>
<path fill="none" stroke="#000000" d="M885.4056,-143.8314C878.7253,-135.5386 870.6846,-125.557 863.351,-116.4533"/>
<polygon fill="#000000" stroke="#000000" points="865.8733,-114.0052 856.8743,-108.4133 860.422,-118.3965 865.8733,-114.0052"/>
</g>
<!-- 46 -->
<g id="node47" class="node">
<title>46</title>
<polygon fill="none" stroke="#000000" points="995.0218,-108 923.061,-108 923.061,-72 995.0218,-72 995.0218,-108"/>
<text text-anchor="middle" x="959.0414" y="-85.8" font-family="Times,serif" font-size="14.00" fill="#000000">undefined</text>
</g>
<!-- 42&#45;&gt;46 -->
<g id="edge46" class="edge">
<title>42&#45;&gt;46</title>
<path fill="none" stroke="#000000" d="M914.9296,-143.8314C921.7944,-135.454 930.0715,-125.3531 937.5925,-116.1749"/>
<polygon fill="#000000" stroke="#000000" points="940.3217,-118.3665 943.9528,-108.4133 934.9073,-113.9297 940.3217,-118.3665"/>
</g>
<!-- 44 -->
<g id="node45" class="node">
<title>44</title>
<polygon fill="none" stroke="#000000" points="806.1243,-36 737.9585,-36 737.9585,0 806.1243,0 806.1243,-36"/>
<text text-anchor="middle" x="772.0414" y="-13.8" font-family="Times,serif" font-size="14.00" fill="#000000">Identifier</text>
</g>
<!-- 43&#45;&gt;44 -->
<g id="edge44" class="edge">
<title>43&#45;&gt;44</title>
<path fill="none" stroke="#000000" d="M824.3774,-71.8314C816.0682,-63.2848 806.015,-52.9443 796.9496,-43.6198"/>
<polygon fill="#000000" stroke="#000000" points="799.4235,-41.1435 789.9432,-36.4133 794.4045,-46.023 799.4235,-41.1435"/>
</g>
<!-- 45 -->
<g id="node46" class="node">
<title>45</title>
<polygon fill="none" stroke="#000000" points="892.1243,-36 823.9585,-36 823.9585,0 892.1243,0 892.1243,-36"/>
<text text-anchor="middle" x="858.0414" y="-13.8" font-family="Times,serif" font-size="14.00" fill="#000000">Identifier</text>
</g>
<!-- 43&#45;&gt;45 -->
<g id="edge45" class="edge">
<title>43&#45;&gt;45</title>
<path fill="none" stroke="#000000" d="M846.0789,-71.8314C847.7901,-64.131 849.8249,-54.9743 851.7266,-46.4166"/>
<polygon fill="#000000" stroke="#000000" points="855.1968,-46.9344 853.9496,-36.4133 848.3635,-45.4159 855.1968,-46.9344"/>
</g>
<!-- 47 -->
<g id="node48" class="node">
<title>47</title>
<polygon fill="none" stroke="#000000" points="993.1243,-36 924.9585,-36 924.9585,0 993.1243,0 993.1243,-36"/>
<text text-anchor="middle" x="959.0414" y="-13.8" font-family="Times,serif" font-size="14.00" fill="#000000">Identifier</text>
</g>
<!-- 46&#45;&gt;47 -->
<g id="edge47" class="edge">
<title>46&#45;&gt;47</title>
<path fill="none" stroke="#000000" d="M959.0414,-71.8314C959.0414,-64.131 959.0414,-54.9743 959.0414,-46.4166"/>
<polygon fill="#000000" stroke="#000000" points="962.5415,-46.4132 959.0414,-36.4133 955.5415,-46.4133 962.5415,-46.4132"/>
</g>
<!-- 49 -->
<g id="node50" class="node">
<title>49</title>
<polygon fill="none" stroke="#000000" points="1039.1243,-396 970.9585,-396 970.9585,-360 1039.1243,-360 1039.1243,-396"/>
<text text-anchor="middle" x="1005.0414" y="-373.8" font-family="Times,serif" font-size="14.00" fill="#000000">Identifier</text>
</g>
<!-- 48&#45;&gt;49 -->
<g id="edge49" class="edge">
<title>48&#45;&gt;49</title>
<path fill="none" stroke="#000000" d="M910.8365,-431.8314C927.1019,-422.5368 947.08,-411.1208 964.4465,-401.1971"/>
<polygon fill="#000000" stroke="#000000" points="966.3105,-404.1631 973.2565,-396.1628 962.8375,-398.0854 966.3105,-404.1631"/>
</g>
</g>
</svg>
