<?xml version="1.0" encoding="UTF-8" standalone="no"?>
<!DOCTYPE svg PUBLIC "-//W3C//DTD SVG 1.1//EN"
 "http://www.w3.org/Graphics/SVG/1.1/DTD/svg11.dtd">
<!-- Generated by graphviz version 2.40.1 (20161225.0304)
 -->
<!-- Title: CFG Pages: 1 -->
<svg width="304pt" height="476pt"
 viewBox="0.00 0.00 304.04 476.00" xmlns="http://www.w3.org/2000/svg" xmlns:xlink="http://www.w3.org/1999/xlink">
<g id="graph0" class="graph" transform="scale(1 1) rotate(0) translate(4 472)">
<title>CFG</title>
<polygon fill="#ffffff" stroke="transparent" points="-4,4 -4,-472 300.0414,-472 300.0414,4 -4,4"/>
<!-- 0 -->
<g id="node1" class="node">
<title>0</title>
<polygon fill="none" stroke="#000000" points="154.2507,-468 89.8321,-468 89.8321,-432 154.2507,-432 154.2507,-468"/>
<text text-anchor="middle" x="122.0414" y="-445.8" font-family="Times,serif" font-size="14.00" fill="#000000">Program</text>
</g>
<!-- 1 -->
<g id="node2" class="node">
<title>1</title>
<polygon fill="none" stroke="#000000" points="158.0218,-396 86.061,-396 86.061,-360 158.0218,-360 158.0218,-396"/>
<text text-anchor="middle" x="122.0414" y="-373.8" font-family="Times,serif" font-size="14.00" fill="#000000">undefined</text>
</g>
<!-- 0&#45;&gt;1 -->
<g id="edge1" class="edge">
<title>0&#45;&gt;1</title>
<path fill="none" stroke="#000000" d="M122.0414,-431.8314C122.0414,-424.131 122.0414,-414.9743 122.0414,-406.4166"/>
<polygon fill="#000000" stroke="#000000" points="125.5415,-406.4132 122.0414,-396.4133 118.5415,-406.4133 125.5415,-406.4132"/>
</g>
<!-- 2 -->
<g id="node3" class="node">
<title>2</title>
<polygon fill="none" stroke="#000000" points="187.6172,-324 56.4656,-324 56.4656,-288 187.6172,-288 187.6172,-324"/>
<text text-anchor="middle" x="122.0414" y="-301.8" font-family="Times,serif" font-size="14.00" fill="#000000">FunctionDeclaration</text>
</g>
<!-- 1&#45;&gt;2 -->
<g id="edge2" class="edge">
<title>1&#45;&gt;2</title>
<path fill="none" stroke="#000000" d="M122.0414,-359.8314C122.0414,-352.131 122.0414,-342.9743 122.0414,-334.4166"/>
<polygon fill="#000000" stroke="#000000" points="125.5415,-334.4132 122.0414,-324.4133 118.5415,-334.4133 125.5415,-334.4132"/>
</g>
<!-- 3 -->
<g id="node4" class="node">
<title>3</title>
<polygon fill="none" stroke="#000000" points="68.1243,-252 -.0415,-252 -.0415,-216 68.1243,-216 68.1243,-252"/>
<text text-anchor="middle" x="34.0414" y="-229.8" font-family="Times,serif" font-size="14.00" fill="#000000">Identifier</text>
</g>
<!-- 2&#45;&gt;3 -->
<g id="edge3" class="edge">
<title>2&#45;&gt;3</title>
<path fill="none" stroke="#000000" d="M99.8353,-287.8314C88.9964,-278.9632 75.797,-268.1637 64.0736,-258.5718"/>
<polygon fill="#000000" stroke="#000000" points="66.1964,-255.7864 56.2404,-252.1628 61.7637,-261.2041 66.1964,-255.7864"/>
</g>
<!-- 4 -->
<g id="node5" class="node">
<title>4</title>
<polygon fill="none" stroke="#000000" points="158.0218,-252 86.061,-252 86.061,-216 158.0218,-216 158.0218,-252"/>
<text text-anchor="middle" x="122.0414" y="-229.8" font-family="Times,serif" font-size="14.00" fill="#000000">undefined</text>
</g>
<!-- 2&#45;&gt;4 -->
<g id="edge4" class="edge">
<title>2&#45;&gt;4</title>
<path fill="none" stroke="#000000" d="M122.0414,-287.8314C122.0414,-280.131 122.0414,-270.9743 122.0414,-262.4166"/>
<polygon fill="#000000" stroke="#000000" points="125.5415,-262.4132 122.0414,-252.4133 118.5415,-262.4133 125.5415,-262.4132"/>
</g>
<!-- 6 -->
<g id="node7" class="node">
<title>6</title>
<polygon fill="none" stroke="#000000" points="281.9729,-252 176.1099,-252 176.1099,-216 281.9729,-216 281.9729,-252"/>
<text text-anchor="middle" x="229.0414" y="-229.8" font-family="Times,serif" font-size="14.00" fill="#000000">BlockStatement</text>
</g>
<!-- 2&#45;&gt;6 -->
<g id="edge6" class="edge">
<title>2&#45;&gt;6</title>
<path fill="none" stroke="#000000" d="M149.042,-287.8314C162.4745,-278.7927 178.8887,-267.7476 193.3453,-258.0198"/>
<polygon fill="#000000" stroke="#000000" points="195.7068,-260.6494 202.0494,-252.1628 191.7989,-254.8418 195.7068,-260.6494"/>
</g>
<!-- 5 -->
<g id="node6" class="node">
<title>5</title>
<polygon fill="none" stroke="#000000" points="156.1243,-180 87.9585,-180 87.9585,-144 156.1243,-144 156.1243,-180"/>
<text text-anchor="middle" x="122.0414" y="-157.8" font-family="Times,serif" font-size="14.00" fill="#000000">Identifier</text>
</g>
<!-- 4&#45;&gt;5 -->
<g id="edge5" class="edge">
<title>4&#45;&gt;5</title>
<path fill="none" stroke="#000000" d="M122.0414,-215.8314C122.0414,-208.131 122.0414,-198.9743 122.0414,-190.4166"/>
<polygon fill="#000000" stroke="#000000" points="125.5415,-190.4132 122.0414,-180.4133 118.5415,-190.4133 125.5415,-190.4132"/>
</g>
<!-- 7 -->
<g id="node8" class="node">
<title>7</title>
<polygon fill="none" stroke="#000000" points="284.1326,-180 173.9502,-180 173.9502,-144 284.1326,-144 284.1326,-180"/>
<text text-anchor="middle" x="229.0414" y="-157.8" font-family="Times,serif" font-size="14.00" fill="#000000">ReturnStatement</text>
</g>
<!-- 6&#45;&gt;7 -->
<g id="edge7" class="edge">
<title>6&#45;&gt;7</title>
<path fill="none" stroke="#000000" d="M229.0414,-215.8314C229.0414,-208.131 229.0414,-198.9743 229.0414,-190.4166"/>
<polygon fill="#000000" stroke="#000000" points="232.5415,-190.4132 229.0414,-180.4133 225.5415,-190.4133 232.5415,-190.4132"/>
</g>
<!-- 8 -->
<g id="node9" class="node">
<title>8</title>
<polygon fill="none" stroke="#000000" points="287.3518,-108 170.731,-108 170.731,-72 287.3518,-72 287.3518,-108"/>
<text text-anchor="middle" x="229.0414" y="-85.8" font-family="Times,serif" font-size="14.00" fill="#000000">BinaryExpression</text>
</g>
<!-- 7&#45;&gt;8 -->
<g id="edge8" class="edge">
<title>7&#45;&gt;8</title>
<path fill="none" stroke="#000000" d="M229.0414,-143.8314C229.0414,-136.131 229.0414,-126.9743 229.0414,-118.4166"/>
<polygon fill="#000000" stroke="#000000" points="232.5415,-118.4132 229.0414,-108.4133 225.5415,-118.4133 232.5415,-118.4132"/>
</g>
<!-- 9 -->
<g id="node10" class="node">
<title>9</title>
<polygon fill="none" stroke="#000000" points="224.1243,-36 155.9585,-36 155.9585,0 224.1243,0 224.1243,-36"/>
<text text-anchor="middle" x="190.0414" y="-13.8" font-family="Times,serif" font-size="14.00" fill="#000000">Identifier</text>
</g>
<!-- 8&#45;&gt;9 -->
<g id="edge9" class="edge">
<title>8&#45;&gt;9</title>
<path fill="none" stroke="#000000" d="M219.2001,-71.8314C214.8457,-63.7925 209.6316,-54.1666 204.8245,-45.2918"/>
<polygon fill="#000000" stroke="#000000" points="207.8557,-43.5392 200.0153,-36.4133 201.7006,-46.8732 207.8557,-43.5392"/>
</g>
<!-- 10 -->
<g id="node11" class="node">
<title>10</title>
<polygon fill="none" stroke="#000000" points="296.0414,-36 242.0414,-36 242.0414,0 296.0414,0 296.0414,-36"/>
<text text-anchor="middle" x="269.0414" y="-13.8" font-family="Times,serif" font-size="14.00" fill="#000000">Literal</text>
</g>
<!-- 8&#45;&gt;10 -->
<g id="edge10" class="edge">
<title>8&#45;&gt;10</title>
<path fill="none" stroke="#000000" d="M239.1351,-71.8314C243.6011,-63.7925 248.9489,-54.1666 253.8793,-45.2918"/>
<polygon fill="#000000" stroke="#000000" points="257.0149,-46.8546 258.8118,-36.4133 250.8958,-43.4551 257.0149,-46.8546"/>
</g>
</g>
</svg>
